<svg width="21" height="20" viewBox="0 0 21 20" fill="none" xmlns="http://www.w3.org/2000/svg">
<g id="Simplification" clip-path="url(#clip0_238_1866)">
<path id="Vector" d="M10.3343 -0.00796377C10.3713 -0.00823953 10.4082 -0.0085153 10.4462 -0.00879942C11.9717 -0.0176136 11.9717 -0.0176136 12.63 0.117158C12.669 0.124711 12.7079 0.132264 12.748 0.140046C14.6387 0.513628 16.365 1.38932 17.7472 2.73435C17.7864 2.77205 17.7864 2.77205 17.8264 2.81051C18.1755 3.14701 18.5037 3.4872 18.7912 3.87816C18.8418 3.94647 18.8938 4.01358 18.9461 4.08063C19.2533 4.47964 19.5027 4.90768 19.7394 5.35153C19.7653 5.4 19.7653 5.4 19.7918 5.44944C20.2416 6.30503 20.5413 7.2539 20.716 8.2031C20.7222 8.23437 20.7285 8.26565 20.735 8.29787C20.9495 9.39424 20.9406 10.7032 20.716 11.7968C20.7043 11.8562 20.7043 11.8562 20.6924 11.9167C20.3715 13.5219 19.6902 14.9647 18.6847 16.25C18.6683 16.271 18.652 16.2921 18.6351 16.3138C18.1363 16.9485 17.5427 17.5359 16.8878 18.0078C16.8453 18.0397 16.8029 18.0716 16.7604 18.1036C15.5414 19.0118 14.1227 19.6081 12.63 19.8828C12.5988 19.8891 12.5675 19.8953 12.5352 19.9018C11.4389 20.1163 10.13 20.1074 9.03628 19.8828C8.99672 19.875 8.95717 19.8673 8.91642 19.8593C7.31124 19.5383 5.86845 18.857 4.58315 17.8515C4.56209 17.8352 4.54103 17.8188 4.51933 17.8019C3.88495 17.3034 3.29625 16.71 2.82534 16.0547C2.7916 16.009 2.75782 15.9633 2.72402 15.9176C2.13248 15.1119 1.66052 14.2288 1.34096 13.2812C1.32483 13.2335 1.32483 13.2335 1.30837 13.1847C1.18188 12.8031 1.08296 12.4171 0.999165 12.0239C0.991401 11.9878 0.983637 11.9517 0.975638 11.9144C0.847017 11.2814 0.818489 10.6589 0.820942 10.0146C0.821027 9.97484 0.821111 9.93507 0.821198 9.89409C0.823139 9.32283 0.835412 8.7645 0.950337 8.2031C0.961667 8.1447 0.961667 8.1447 0.973225 8.08513C1.27122 6.57699 1.885 5.16475 2.82534 3.94528C2.85046 3.91265 2.87559 3.88002 2.90148 3.84641C3.45165 3.14599 4.09006 2.4707 4.81752 1.9531C4.84165 1.93567 4.86578 1.91825 4.89063 1.9003C6.45911 0.772482 8.38309 0.00177681 10.3343 -0.00796377ZM9.52944 1.27438C9.46357 1.28478 9.46357 1.28478 9.39637 1.29539C8.81904 1.39128 8.26538 1.54929 7.71547 1.74802C7.6837 1.75949 7.65193 1.77096 7.6192 1.78278C7.45921 1.83231 7.45921 1.83231 7.35659 1.9531C7.39685 1.97863 7.39685 1.97863 7.43792 2.00467C7.80299 2.24596 7.80299 2.24596 7.8644 2.46091C7.89313 2.67086 7.86907 2.82906 7.74721 3.00778C7.58448 3.14463 7.45261 3.2031 7.2394 3.2031C6.9165 3.10869 6.66081 2.92795 6.39368 2.73023C6.23425 2.60851 6.23425 2.60851 6.04494 2.5903C6.01372 2.61206 5.9825 2.63381 5.95034 2.65622C5.92903 2.67064 5.90772 2.68506 5.88576 2.69992C5.80879 2.75337 5.73428 2.80931 5.65981 2.86618C5.63238 2.88701 5.60494 2.90783 5.57668 2.92929C4.89915 3.44848 4.21766 4.03392 3.76284 4.7656C3.7935 4.7666 3.82417 4.76761 3.85576 4.76865C4.11445 4.78261 4.30106 4.79519 4.50502 4.96091C4.62465 5.11461 4.67456 5.25916 4.66372 5.45407C4.63253 5.63834 4.56116 5.73133 4.4269 5.85935C4.28364 5.95574 4.15128 5.94644 3.98195 5.9451C3.95443 5.94499 3.92691 5.94488 3.89855 5.94477C3.81099 5.94433 3.72344 5.94335 3.63588 5.94235C3.57638 5.94196 3.51687 5.94161 3.45736 5.94129C3.31178 5.94043 3.16622 5.93908 3.02065 5.93747C2.51094 6.88605 2.18482 7.91147 2.08315 8.98435C2.10581 8.97352 2.12847 8.96269 2.15181 8.95154C2.41464 8.82967 2.62103 8.75415 2.90758 8.83634C3.07136 8.90455 3.1547 9.01706 3.23061 9.17233C3.26847 9.36543 3.25676 9.52737 3.1686 9.70452C3.08767 9.82059 3.02196 9.86033 2.89629 9.92352C2.83711 9.95377 2.83711 9.95377 2.77674 9.98464C2.73557 10.005 2.69441 10.0254 2.652 10.0464C2.61098 10.0672 2.56997 10.088 2.52771 10.1095C2.41884 10.1646 2.30967 10.2192 2.20034 10.2734C2.14825 10.2994 2.09616 10.3255 2.04409 10.3515C2.03564 10.6754 2.05664 10.9839 2.10756 11.3037C2.1145 11.3476 2.12143 11.3915 2.12857 11.4367C2.22446 12.0141 2.38247 12.5677 2.5812 13.1176C2.59267 13.1494 2.60414 13.1812 2.61596 13.2139C2.66549 13.3739 2.66549 13.3739 2.78627 13.4765C2.8118 13.4363 2.8118 13.4363 2.83785 13.3952C3.07914 13.0301 3.07914 13.0301 3.29409 12.9687C3.50404 12.94 3.66224 12.9641 3.84096 13.0859C3.97771 13.2485 4.03261 13.381 4.03627 13.5937C3.94364 13.9044 3.76561 14.1459 3.5792 14.4079C3.55656 14.4411 3.53393 14.4743 3.51061 14.5085C3.4792 14.5531 3.4792 14.5531 3.44716 14.5985C3.40064 14.6881 3.40064 14.6881 3.43827 14.7878C3.48265 14.8702 3.52703 14.9445 3.58309 15.0194C3.60157 15.0441 3.62004 15.0689 3.63908 15.0944C3.65897 15.1204 3.67886 15.1465 3.69936 15.1733C3.72019 15.2007 3.74101 15.2282 3.76247 15.2564C4.28165 15.934 4.8671 16.6155 5.59877 17.0703C5.59978 17.0396 5.60079 17.009 5.60183 16.9774C5.61579 16.7187 5.62837 16.5321 5.79409 16.3281C5.94779 16.2085 6.09234 16.1586 6.28725 16.1694C6.47152 16.2006 6.56451 16.272 6.69253 16.4062C6.78892 16.5495 6.77962 16.6818 6.77828 16.8512C6.77817 16.8787 6.77806 16.9062 6.77794 16.9346C6.77751 17.0221 6.77653 17.1097 6.77553 17.1972C6.77514 17.2567 6.77478 17.3163 6.77447 17.3758C6.77361 17.5213 6.77226 17.6669 6.77065 17.8125C7.71923 18.3222 8.74465 18.6483 9.81753 18.75C9.8067 18.7278 9.79587 18.7056 9.78472 18.6827C9.66573 18.429 9.58709 18.2215 9.66372 17.9419C9.7289 17.7695 9.80248 17.6947 9.97378 17.6172C10.1461 17.5671 10.2603 17.5699 10.4328 17.6245C10.6358 17.7377 10.7324 17.8648 10.8338 18.0719C10.8544 18.1137 10.8751 18.1555 10.8963 18.1985C10.9279 18.2636 10.9279 18.2636 10.9601 18.33C10.9818 18.3741 11.0034 18.4181 11.0257 18.4634C11.079 18.5718 11.132 18.6804 11.1847 18.789C11.5086 18.7975 11.817 18.7765 12.1369 18.7256C12.2027 18.7152 12.2027 18.7152 12.2699 18.7045C12.8473 18.6087 13.4009 18.4507 13.9508 18.2519C13.9826 18.2405 14.0144 18.229 14.0471 18.2172C14.2071 18.1676 14.2071 18.1676 14.3097 18.0468C14.2829 18.0298 14.256 18.0128 14.2284 17.9953C13.8633 17.754 13.8633 17.754 13.8019 17.539C13.7732 17.3291 13.7972 17.1709 13.9191 16.9922C14.0817 16.8554 14.2142 16.8005 14.4269 16.7968C14.7376 16.8895 14.9791 17.0675 15.241 17.2539C15.2742 17.2766 15.3075 17.2992 15.3417 17.3225C15.3862 17.3539 15.3862 17.3539 15.4317 17.386C15.5213 17.4325 15.5213 17.4325 15.621 17.3948C15.7034 17.3505 15.7777 17.3061 15.8525 17.25C15.8773 17.2316 15.902 17.2131 15.9276 17.194C15.9666 17.1642 15.9666 17.1642 16.0065 17.1338C16.0339 17.1129 16.0614 17.0921 16.0896 17.0707C16.7672 16.5515 17.4486 15.966 17.9035 15.2343C17.8728 15.2333 17.8421 15.2323 17.8105 15.2313C17.551 15.2173 17.3698 15.1988 17.1613 15.039C17.0375 14.8905 16.9992 14.7227 17.005 14.5312C17.0663 14.3269 17.1404 14.2196 17.3175 14.1015C17.4331 14.0438 17.5501 14.0577 17.6767 14.0587C17.7044 14.0587 17.732 14.0588 17.7605 14.0588C17.8488 14.059 17.9372 14.0595 18.0255 14.06C18.0854 14.0602 18.1453 14.0604 18.2051 14.0606C18.352 14.061 18.4988 14.0617 18.6457 14.0625C19.1554 13.1139 19.4815 12.0885 19.5832 11.0156C19.5609 11.0264 19.5387 11.0372 19.5159 11.0484C19.2622 11.1674 19.0546 11.246 18.775 11.1694C18.6027 11.1042 18.5279 11.0306 18.4503 10.8593C18.4003 10.6871 18.4031 10.5728 18.4577 10.4004C18.5709 10.1974 18.6979 10.1007 18.9051 9.99936C18.9468 9.97871 18.9886 9.95807 19.0317 9.9368C19.0968 9.90523 19.0968 9.90523 19.1632 9.87302C19.2072 9.85137 19.2512 9.82971 19.2966 9.80741C19.405 9.75412 19.5135 9.70113 19.6222 9.64841C19.6307 9.32451 19.6097 9.01608 19.5587 8.69626C19.5483 8.63039 19.5483 8.63039 19.5377 8.56319C19.4418 7.98586 19.2838 7.4322 19.0851 6.8823C19.0736 6.85052 19.0622 6.81875 19.0503 6.78602C19.0008 6.62603 19.0008 6.62603 18.88 6.52341C18.863 6.55025 18.846 6.57709 18.8285 6.60474C18.5872 6.96981 18.5872 6.96981 18.3722 7.03122C18.1623 7.05995 18.0041 7.03589 17.8253 6.91403C17.6882 6.75099 17.6375 6.61889 17.63 6.40622C17.6854 6.09215 17.8873 5.86071 18.0713 5.60788C18.0959 5.57273 18.1205 5.53759 18.1458 5.50137C18.1686 5.46977 18.1914 5.43817 18.2149 5.40561C18.2662 5.31285 18.2662 5.31285 18.2286 5.21154C18.1838 5.12974 18.1391 5.05514 18.0832 4.98059C18.0647 4.95583 18.0463 4.93108 18.0272 4.90557C18.0073 4.87952 17.9874 4.85347 17.9669 4.82663C17.9461 4.7992 17.9253 4.77176 17.9038 4.7435C17.3783 4.05768 16.7953 3.40528 16.0675 2.92966C16.0618 2.98971 16.0618 2.98971 16.0559 3.05097C16.0501 3.10412 16.0442 3.15727 16.0382 3.21042C16.0346 3.24989 16.0346 3.24989 16.0309 3.29015C16.0093 3.47462 15.9653 3.58044 15.8332 3.71091C15.6626 3.81908 15.4795 3.84959 15.282 3.81421C15.1285 3.76189 15.0196 3.66154 14.9288 3.52708C14.8814 3.39906 14.8869 3.28499 14.888 3.14877C14.8882 3.10749 14.8882 3.10749 14.8884 3.06537C14.8888 2.97781 14.8898 2.89026 14.8908 2.80271C14.8912 2.7432 14.8915 2.68369 14.8918 2.62418C14.8927 2.4786 14.894 2.33304 14.8957 2.18747C13.9471 1.67776 12.9217 1.35164 11.8488 1.24997C11.8596 1.27263 11.8704 1.29529 11.8816 1.31864C12.0035 1.58147 12.079 1.78785 11.9968 2.0744C11.9286 2.23818 11.8161 2.32152 11.6608 2.39743C11.4677 2.43529 11.3058 2.42358 11.1286 2.33542C11.0125 2.25449 10.9728 2.18878 10.9096 2.06311C10.8793 2.00393 10.8793 2.00393 10.8485 1.94356C10.8281 1.90239 10.8077 1.86123 10.7868 1.81882C10.7659 1.77781 10.7451 1.73679 10.7237 1.69454C10.6685 1.58566 10.614 1.4765 10.5597 1.36716C10.5337 1.31507 10.5077 1.26298 10.4816 1.21091C10.1577 1.20246 9.84926 1.22346 9.52944 1.27438Z" fill="#AB2128"/>
<path id="Vector_2" d="M14.7936 5.14095C14.8143 5.15888 14.8351 5.17681 14.8564 5.19529C14.8874 5.22196 14.8874 5.22196 14.919 5.24917C16.141 6.31285 16.963 7.82396 17.083 9.4531C17.1663 11.1184 16.7435 12.7448 15.6377 14.0234C15.611 14.0544 15.611 14.0544 15.5838 14.0859C14.5312 15.2952 13.0522 16.0975 11.4453 16.2429C9.6262 16.366 7.99358 15.8314 6.61669 14.6371C5.45894 13.6184 4.69388 12.0891 4.583 10.5469C4.50874 8.74776 4.9958 7.09798 6.22119 5.75437C8.42151 3.39938 12.2889 3.00376 14.7936 5.14095ZM7.59081 6.13279C7.57032 6.15022 7.54983 6.16766 7.52871 6.18562C7.25847 6.41803 7.02177 6.66537 6.80956 6.9531C6.99138 7.1131 7.19698 7.22226 7.40771 7.33884C7.74726 7.52866 8.08497 7.72127 8.42089 7.91746C8.46109 7.94089 8.50129 7.96432 8.54271 7.98847C8.82517 8.15361 8.82517 8.15361 8.958 8.24216C9.10627 8.231 9.19995 8.14541 9.31445 8.05662C9.61068 7.83612 9.90107 7.70785 10.2471 7.5781C10.2471 6.72732 10.2471 5.87654 10.2471 4.99998C9.30333 4.99998 8.29139 5.53338 7.59081 6.13279ZM11.4189 4.99998C11.4189 5.85076 11.4189 6.70154 11.4189 7.5781C11.6123 7.65545 11.8057 7.73279 12.0049 7.81248C12.1861 7.92923 12.3461 8.043 12.5078 8.18357C12.5837 8.25114 12.5837 8.25114 12.6613 8.23315C12.7657 8.19658 12.8562 8.14774 12.9526 8.09339C12.9928 8.07084 13.0329 8.04828 13.0743 8.02504C13.117 8.00082 13.1597 7.97659 13.2036 7.95164C13.2474 7.92694 13.2912 7.90223 13.3363 7.87678C13.6651 7.69083 13.9915 7.50116 14.316 7.30808C14.4955 7.20166 14.6761 7.0971 14.8564 6.99216C14.4182 6.30905 13.7743 5.83217 13.0596 5.46873C13.0223 5.44954 12.985 5.43036 12.9466 5.41059C12.4837 5.18673 11.9351 4.99998 11.4189 4.99998ZM6.18456 8.04685C5.67453 9.3178 5.66815 10.5944 6.1455 11.875C6.15839 11.9008 6.17128 11.9265 6.18456 11.9531C6.32302 11.9006 6.4505 11.8393 6.57961 11.7669C6.61828 11.7453 6.65695 11.7237 6.69678 11.7014C6.75865 11.6665 6.75865 11.6665 6.82177 11.6308C6.86443 11.6069 6.90708 11.5829 6.95103 11.5582C7.69202 11.1485 7.69202 11.1485 8.41113 10.7031C8.4069 10.6549 8.4069 10.6549 8.40258 10.6058C8.37261 10.2453 8.36321 9.89919 8.3919 9.53855C8.39548 9.49318 8.39906 9.44781 8.40275 9.40107C8.4069 9.34948 8.4069 9.34948 8.41113 9.29685C7.87134 8.98118 7.3308 8.6669 6.78883 8.35499C6.74839 8.33171 6.70795 8.30842 6.66628 8.28443C6.63072 8.26398 6.59517 8.24353 6.55853 8.22245C6.48907 8.18209 6.42033 8.1405 6.35221 8.09792C6.26856 8.0404 6.26856 8.0404 6.18456 8.04685ZM15.2092 8.15443C15.1688 8.17788 15.1284 8.20134 15.0868 8.2255C15.043 8.25114 14.9992 8.27678 14.9541 8.3032C14.9088 8.32955 14.8636 8.35588 14.8183 8.38219C14.7234 8.43736 14.6285 8.4926 14.5337 8.54787C14.3889 8.63218 14.2438 8.71588 14.0985 8.79942C14.0753 8.81277 14.0521 8.82613 14.0282 8.83988C13.9162 8.90434 13.8041 8.96877 13.692 9.03319C13.6518 9.0564 13.6115 9.07961 13.57 9.10352C13.5345 9.12393 13.499 9.14434 13.4625 9.16537C13.3919 9.207 13.323 9.25142 13.2549 9.29685C13.2577 9.32898 13.2605 9.3611 13.2634 9.3942C13.2934 9.75469 13.3028 10.1008 13.2741 10.4614C13.2705 10.5068 13.2669 10.5521 13.2633 10.5989C13.2591 10.6505 13.2591 10.6505 13.2549 10.7031C13.7947 11.0188 14.3352 11.3331 14.8772 11.645C14.9176 11.6682 14.9581 11.6915 14.9997 11.7155C15.0353 11.736 15.0708 11.7564 15.1075 11.7775C15.1769 11.8179 15.2457 11.8595 15.3138 11.902C15.3974 11.9596 15.3974 11.9596 15.4814 11.9531C15.9915 10.6822 15.9979 9.40553 15.5205 8.12498C15.5012 8.08631 15.5012 8.08631 15.4814 8.04685C15.3691 8.04685 15.3061 8.09787 15.2092 8.15443ZM9.81738 9.21873C9.60784 9.46588 9.52749 9.78183 9.54638 10.1025C9.60257 10.5183 9.81561 10.8261 10.1396 11.0864C10.4123 11.266 10.7232 11.3153 11.0428 11.2721C11.4275 11.1892 11.748 10.9537 11.9644 10.625C12.1363 10.2929 12.1616 9.94964 12.0548 9.59333C11.9293 9.27667 11.686 8.9844 11.3799 8.8281C10.7716 8.60788 10.255 8.7389 9.81738 9.21873ZM8.68212 11.9165C8.62254 11.9522 8.56293 11.9879 8.50329 12.0236C8.47028 12.0434 8.43728 12.0632 8.40327 12.0835C8.19469 12.2073 7.98418 12.3278 7.77392 12.4487C7.45186 12.6341 7.13033 12.8202 6.80956 13.0078C7.46592 14.0308 8.6132 14.6699 9.77282 14.9487C9.93839 14.984 10.0755 15 10.2471 15C10.2471 14.1492 10.2471 13.2984 10.2471 12.4219C10.0537 12.3445 9.86035 12.2672 9.66113 12.1875C9.4809 12.0713 9.31987 11.955 9.15576 11.8188C8.98034 11.6859 8.84266 11.8183 8.68212 11.9165ZM12.4175 11.8994C12.1143 12.1495 11.7852 12.2845 11.4189 12.4219C11.4189 13.2726 11.4189 14.1234 11.4189 15C12.6739 14.8745 13.8523 14.2495 14.6756 13.2905C14.738 13.2106 14.7986 13.1302 14.8564 13.0469C14.6746 12.8869 14.469 12.7777 14.2583 12.6611C13.9187 12.4713 13.581 12.2787 13.2451 12.0825C13.2049 12.0591 13.1647 12.0356 13.1233 12.0115C12.8408 11.8463 12.8408 11.8463 12.708 11.7578C12.5574 11.7578 12.5291 11.8015 12.4175 11.8994Z" fill="#AB2128"/>
</g>
<defs>
<clipPath id="clip0_238_1866">
<rect width="20" height="20" fill="white" transform="translate(0.833008)"/>
</clipPath>
</defs>
</svg>
