<svg width="20" height="20" viewBox="0 0 20 20" fill="none" xmlns="http://www.w3.org/2000/svg">
<g id="mage:electricity">
<path id="Vector" d="M7.68103 2.29167H13.7194C13.7921 2.29142 13.8638 2.30932 13.9279 2.34376C13.992 2.3782 14.0465 2.42809 14.0865 2.4889C14.1265 2.54972 14.1506 2.61955 14.1568 2.69206C14.163 2.76457 14.151 2.83747 14.1219 2.90417L11.7594 8.41834H15.7419C15.7752 8.41868 15.8078 8.42854 15.8357 8.44676C15.8636 8.46498 15.8858 8.49081 15.8995 8.52119C15.9133 8.55157 15.918 8.58525 15.9133 8.61826C15.9085 8.65127 15.8945 8.68223 15.8727 8.7075L7.75103 17.6333C7.72887 17.6665 7.69556 17.6906 7.65716 17.7012C7.61875 17.7119 7.57779 17.7085 7.5417 17.6915C7.50561 17.6746 7.47679 17.6453 7.46046 17.6089C7.44413 17.5726 7.44138 17.5316 7.4527 17.4933L8.25853 11.0433H4.5302C4.45779 11.0443 4.38627 11.0273 4.32202 10.9939C4.25778 10.9605 4.20281 10.9117 4.16203 10.8519C4.12126 10.792 4.09594 10.723 4.08835 10.651C4.08076 10.579 4.09113 10.5062 4.11853 10.4392L7.26853 2.5625C7.30193 2.48094 7.35918 2.41137 7.43278 2.36289C7.50638 2.31442 7.59291 2.29014 7.68103 2.29167Z" stroke="#AB2128" stroke-width="1.25" stroke-linecap="round" stroke-linejoin="round"/>
</g>
</svg>
