<svg width="20" height="20" viewBox="0 0 20 20" fill="none" xmlns="http://www.w3.org/2000/svg">
<g id="ph:engine">
<path id="Vector" d="M18.75 8.125H17.7586L15 5.36641C14.8843 5.24983 14.7467 5.1574 14.595 5.0945C14.4433 5.0316 14.2806 4.99948 14.1164 5H10.9375V3.125H12.8125C12.9783 3.125 13.1372 3.05915 13.2544 2.94194C13.3717 2.82473 13.4375 2.66576 13.4375 2.5C13.4375 2.33424 13.3717 2.17527 13.2544 2.05806C13.1372 1.94085 12.9783 1.875 12.8125 1.875H7.8125C7.64674 1.875 7.48777 1.94085 7.37056 2.05806C7.25335 2.17527 7.1875 2.33424 7.1875 2.5C7.1875 2.66576 7.25335 2.82473 7.37056 2.94194C7.48777 3.05915 7.64674 3.125 7.8125 3.125H9.6875V5H5C4.66848 5 4.35054 5.1317 4.11612 5.36612C3.8817 5.60054 3.75 5.91848 3.75 6.25V10.3125H1.875V8.4375C1.875 8.27174 1.80915 8.11277 1.69194 7.99556C1.57473 7.87835 1.41576 7.8125 1.25 7.8125C1.08424 7.8125 0.925268 7.87835 0.808058 7.99556C0.690848 8.11277 0.625 8.27174 0.625 8.4375V13.4375C0.625 13.6033 0.690848 13.7622 0.808058 13.8794C0.925268 13.9967 1.08424 14.0625 1.25 14.0625C1.41576 14.0625 1.57473 13.9967 1.69194 13.8794C1.80915 13.7622 1.875 13.6033 1.875 13.4375V11.5625H3.75V13.1789C3.74948 13.3431 3.7816 13.5058 3.8445 13.6575C3.9074 13.8092 3.99983 13.9468 4.11641 14.0625L7.1875 17.1336C7.30315 17.2502 7.44082 17.3426 7.59251 17.4055C7.7442 17.4684 7.90688 17.5005 8.07109 17.5H14.1164C14.2806 17.5005 14.4433 17.4684 14.595 17.4055C14.7467 17.3426 14.8843 17.2502 15 17.1336L17.7586 14.375H18.75C19.0815 14.375 19.3995 14.2433 19.6339 14.0089C19.8683 13.7745 20 13.4565 20 13.125V9.375C20 9.04348 19.8683 8.72554 19.6339 8.49112C19.3995 8.2567 19.0815 8.125 18.75 8.125ZM18.75 13.125H17.5C17.4179 13.1249 17.3366 13.141 17.2607 13.1724C17.1848 13.2038 17.1159 13.2498 17.0578 13.3078L14.1164 16.25H8.07109L5 13.1789V6.25H14.1164L17.0578 9.19219C17.1159 9.25021 17.1848 9.29622 17.2607 9.32759C17.3366 9.35895 17.4179 9.37506 17.5 9.375H18.75V13.125Z" fill="#AB2128"/>
</g>
</svg>
