<svg width="20" height="20" viewBox="0 0 20 20" fill="none" xmlns="http://www.w3.org/2000/svg">
<g id="hugeicons:car-03">
<g id="Group">
<path id="Vector" d="M7.5057 14.1667C7.5057 14.6088 7.3301 15.0327 7.01754 15.3452C6.70498 15.6578 6.28106 15.8334 5.83903 15.8334C5.397 15.8334 4.97308 15.6578 4.66052 15.3452C4.34796 15.0327 4.17236 14.6088 4.17236 14.1667C4.17236 13.7247 4.34796 13.3008 4.66052 12.9882C4.97308 12.6757 5.397 12.5001 5.83903 12.5001C6.28106 12.5001 6.70498 12.6757 7.01754 12.9882C7.3301 13.3008 7.5057 13.7247 7.5057 14.1667ZM15.839 14.1667C15.839 14.6088 15.6634 15.0327 15.3509 15.3452C15.0383 15.6578 14.6144 15.8334 14.1724 15.8334C13.7303 15.8334 13.3064 15.6578 12.9939 15.3452C12.6813 15.0327 12.5057 14.6088 12.5057 14.1667C12.5057 13.7247 12.6813 13.3008 12.9939 12.9882C13.3064 12.6757 13.7303 12.5001 14.1724 12.5001C14.6144 12.5001 15.0383 12.6757 15.3509 12.9882C15.6634 13.3008 15.839 13.7247 15.839 14.1667Z" stroke="#AB2128" stroke-width="1.25" stroke-linecap="round" stroke-linejoin="round"/>
<path id="Vector_2" d="M1.67253 8.33335H15.0059M1.67253 8.33335C1.67253 8.98335 1.65586 10.8667 1.67586 12.7167C1.70586 13.3167 1.80586 13.8167 4.17419 14.1667M1.67253 8.33335C1.85253 6.88335 2.63503 5.16669 3.03503 4.51669M7.50586 8.33335V4.16669M12.4975 14.1667H7.50169M1.68503 4.16669H10.2C10.2 4.16669 10.65 4.16669 11.05 4.20669C11.7992 4.27669 12.4284 4.61669 13.0584 5.46669C13.725 6.36669 14.2367 7.50669 14.9167 8.11669C16.0459 9.13002 18.1942 8.81669 18.3142 10.9667C18.3442 12.0667 18.3442 13.2667 18.2942 13.4667C18.2134 14.0559 17.7592 14.1517 17.1942 14.1667C16.7042 14.18 16.1134 14.1434 15.8259 14.1667" stroke="#AB2128" stroke-width="1.25" stroke-linecap="round" stroke-linejoin="round"/>
</g>
</g>
</svg>
