<svg width="32" height="32" viewBox="0 0 32 32" fill="none" xmlns="http://www.w3.org/2000/svg">
<g id="Simplification" clip-path="url(#clip0_619_393)">
<path id="Vector" d="M22.625 0.625C23.36 0.660062 24.0784 0.766178 24.8047 0.878906C24.9212 0.89672 25.0376 0.914501 25.1541 0.932251C25.4361 0.975305 25.7181 1.01878 26 1.0625C25.9924 1.11315 25.9849 1.1638 25.9771 1.21599C25.9486 1.40801 25.9208 1.6001 25.8932 1.79225C25.8755 1.91466 25.8572 2.03698 25.8389 2.1593C25.6736 3.06944 25.6736 3.06944 25.8594 3.94531C26.0655 4.20862 26.2331 4.34144 26.5684 4.39648C27.3379 4.44645 27.9214 3.81379 28.4879 3.36252C28.5344 3.32563 28.5808 3.28874 28.6287 3.25073C28.6701 3.21751 28.7116 3.1843 28.7543 3.15007C28.8734 3.06368 28.9917 2.99921 29.125 2.9375C29.5587 3.44802 29.9552 3.98229 30.3501 4.52295C30.4797 4.70032 30.6104 4.87665 30.7437 5.05127C30.7702 5.08604 30.7967 5.12081 30.824 5.15663C30.8934 5.24725 30.963 5.33762 31.0327 5.42798C31.125 5.5625 31.125 5.5625 31.125 5.6875C31.0259 5.77408 31.0259 5.77408 30.8872 5.87354C30.8116 5.92834 30.8116 5.92834 30.7344 5.98425C30.6803 6.02296 30.6261 6.06168 30.5703 6.10156C30.461 6.18108 30.3517 6.26066 30.2424 6.34033C30.1897 6.3787 30.1369 6.41707 30.0826 6.4566C29.3943 6.93291 29.3943 6.93291 29.0039 7.64844C28.9976 8.01784 29.1016 8.26824 29.332 8.55469C29.6397 8.79798 29.9965 8.84026 30.3765 8.89307C30.4231 8.89983 30.4697 8.90658 30.5178 8.91355C30.6655 8.93488 30.8132 8.95573 30.961 8.97656C31.0616 8.99102 31.1623 9.0055 31.263 9.02002C31.5086 9.05538 31.7543 9.0903 32 9.125C32.009 9.50505 31.9758 9.8636 31.9202 10.2393C31.9079 10.3247 31.9079 10.3247 31.8954 10.4119C31.8782 10.5314 31.8608 10.651 31.8432 10.7705C31.8164 10.9534 31.7901 11.1364 31.7638 11.3193C31.747 11.4359 31.7301 11.5524 31.7131 11.6689C31.7053 11.7235 31.6974 11.7781 31.6893 11.8343C31.6818 11.8852 31.6743 11.9361 31.6665 11.9886C31.6567 12.0554 31.6567 12.0554 31.6468 12.1236C31.6248 12.2512 31.5955 12.3749 31.5625 12.5C31.5096 12.4924 31.4568 12.4849 31.4023 12.4771C31.2025 12.4487 31.0026 12.4208 30.8026 12.3932C30.7168 12.3812 30.631 12.3691 30.5452 12.3568C29.6009 12.1774 29.6009 12.1774 28.6875 12.3477C28.4289 12.5578 28.292 12.7411 28.2219 13.0688C28.164 13.7974 28.8629 14.4475 29.2824 14.9795C29.3256 15.0351 29.3688 15.0907 29.4133 15.1479C29.4525 15.1976 29.4917 15.2473 29.5321 15.2986C29.6217 15.4325 29.661 15.53 29.6875 15.6875C29.6584 15.7088 29.6293 15.73 29.5993 15.752C29.4581 15.8553 29.3169 15.9589 29.1758 16.0625C29.097 16.1203 29.097 16.1203 29.0166 16.1794C28.543 16.5284 28.0754 16.8851 27.6106 17.2457C27.558 17.2862 27.5054 17.3267 27.4512 17.3684C27.4047 17.4044 27.3583 17.4404 27.3104 17.4775C27.1875 17.5625 27.1875 17.5625 27 17.625C26.63 17.184 26.2791 16.732 25.9367 16.2693C25.9061 16.228 25.8755 16.1868 25.844 16.1443C25.8168 16.1074 25.7896 16.0706 25.7616 16.0326C25.6836 15.9285 25.6836 15.9285 25.5625 15.8125C25.5462 15.8515 25.5299 15.8904 25.5131 15.9306C24.6178 18.0579 23.4176 19.7617 21.5039 21.0781C20.72 21.6206 20.2635 22.251 20.0371 23.1938C19.9428 23.8134 19.9746 24.4529 19.9775 25.0782C19.978 25.2685 19.9767 25.4587 19.9751 25.6489C19.9759 25.7062 19.9768 25.7635 19.9776 25.8226C19.9718 26.3352 19.8018 26.7348 19.4649 27.1211C19.4146 27.1636 19.3643 27.2062 19.3125 27.25C19.2687 27.2874 19.2249 27.3248 19.1797 27.3633C19.0625 27.4375 19.0625 27.4375 18.875 27.4375C18.8753 27.4729 18.8756 27.5083 18.8759 27.5448C18.8786 27.9159 18.8805 28.2871 18.8819 28.6582C18.8825 28.7964 18.8834 28.9346 18.8844 29.0728C18.886 29.2723 18.8867 29.4719 18.8872 29.6714C18.8882 29.7629 18.8882 29.7629 18.8892 29.8563C18.8893 30.4963 18.8344 31.0253 18.375 31.5C17.895 31.9547 17.3754 32.0195 16.7327 32.0188C16.6795 32.0191 16.6263 32.0193 16.5714 32.0196C16.4597 32.02 16.348 32.02 16.2363 32.0197C16.0671 32.0195 15.8979 32.021 15.7287 32.0226C15.0141 32.0253 14.377 32.0171 13.7974 31.5466C13.5147 31.2659 13.3236 30.9408 13.306 30.5385C13.3068 30.4558 13.3068 30.4558 13.3076 30.3715C13.308 30.3087 13.3084 30.2459 13.3087 30.1812C13.3093 30.1138 13.3098 30.0463 13.3103 29.9768C13.3101 29.8338 13.3097 29.6908 13.3092 29.5477C13.3086 29.3223 13.3086 29.0971 13.311 28.8717C13.3131 28.6541 13.312 28.4366 13.3103 28.219C13.3124 28.118 13.3124 28.118 13.3146 28.015C13.318 27.6706 13.318 27.6706 13.142 27.3931C13.0122 27.3095 13.0122 27.3095 12.8775 27.25C12.6086 27.1181 12.4322 26.8878 12.3187 26.6143C12.1955 26.2161 12.1583 25.8506 12.1555 25.4351C12.1544 25.3721 12.1533 25.3092 12.1521 25.2444C12.1488 25.0457 12.1466 24.8471 12.1445 24.6484C12.1425 24.5128 12.1403 24.3771 12.1381 24.2415C12.1328 23.911 12.1285 23.5805 12.125 23.25C11.8692 23.4644 11.6242 23.6815 11.3938 23.9236C11.3173 24.0026 11.3173 24.0026 11.2392 24.0831C11.1332 24.193 11.0277 24.3034 10.9227 24.4142C10.8719 24.4663 10.8211 24.5184 10.7688 24.572C10.7232 24.6197 10.6775 24.6674 10.6305 24.7165C10.5 24.8125 10.5 24.8125 10.3794 24.8105C10.2091 24.7309 10.064 24.6318 9.91066 24.5229C9.84548 24.4778 9.7803 24.4326 9.71315 24.386C9.61024 24.3142 9.50759 24.242 9.40544 24.1691C9.3063 24.0986 9.20614 24.0295 9.10597 23.9604C9.04668 23.9186 8.9874 23.8768 8.92631 23.8337C8.71009 23.731 8.60208 23.7475 8.37501 23.8125C8.18458 23.9458 8.14833 24.091 8.09767 24.3125C8.08252 24.3779 8.06738 24.4433 8.05177 24.5107C7.94898 24.9859 7.84863 25.4614 7.75001 25.9375C6.98689 25.9375 6.22376 25.9375 5.43751 25.9375C5.23048 24.9805 5.23048 24.9805 5.16644 24.6791C5.1405 24.5618 5.1405 24.5618 5.11403 24.4421C5.09668 24.3619 5.07933 24.2818 5.06146 24.1991C4.99025 23.9642 4.99025 23.9642 4.81251 23.8125C4.63683 23.7534 4.54144 23.7351 4.36581 23.7982C4.3004 23.8374 4.3004 23.8374 4.23366 23.8774C4.18505 23.9065 4.13643 23.9356 4.08635 23.9656C3.79754 24.1536 3.52178 24.3586 3.24721 24.5667C3.20261 24.5993 3.15802 24.6319 3.11207 24.6655C3.07245 24.6953 3.03283 24.725 2.992 24.7557C2.87501 24.8125 2.87501 24.8125 2.75809 24.8122C2.5544 24.717 2.41335 24.5612 2.2588 24.4021C2.22448 24.3675 2.19015 24.3329 2.15478 24.2973C2.04545 24.1869 1.93679 24.0759 1.82814 23.9648C1.75405 23.8898 1.67991 23.8148 1.60573 23.7399C1.42416 23.5562 1.24318 23.372 1.06251 23.1875C1.25381 22.8287 1.45823 22.4915 1.69923 22.1641C1.75353 22.0894 1.80781 22.0147 1.86207 21.9399C1.90759 21.8773 1.95311 21.8146 2.00001 21.75C2.15397 21.5191 2.14938 21.3979 2.12501 21.125C1.97443 20.9064 1.76345 20.8752 1.51564 20.8125C1.47482 20.802 1.43401 20.7916 1.39195 20.7808C1.01109 20.6853 0.626713 20.6099 0.240737 20.5383C0.0625142 20.5 0.0625142 20.5 1.42106e-05 20.4375C-0.00552027 20.2709 -0.00718871 20.1058 -0.00608931 19.9392C-0.00600087 19.8894 -0.00591148 19.8395 -0.00582037 19.7881C-0.00546941 19.6283 -0.00468567 19.4684 -0.00389204 19.3086C-0.00357873 19.2005 -0.00329352 19.0924 -0.00303755 18.9843C-0.00234696 18.7187 -0.00126728 18.4531 1.42106e-05 18.1875C0.979564 17.9409 0.979564 17.9409 1.31203 17.865C1.39211 17.8464 1.47219 17.8278 1.5547 17.8086C1.59684 17.7994 1.63897 17.7901 1.68239 17.7806C1.95179 17.7175 1.95179 17.7175 2.12501 17.5C2.15591 17.2084 2.10836 17.0529 1.94533 16.8125C1.90609 16.7541 1.86686 16.6957 1.82643 16.6355C1.57423 16.276 1.32039 15.9179 1.06251 15.5625C1.16301 15.3151 1.33436 15.1444 1.51906 14.9578C1.55158 14.9247 1.58411 14.8916 1.61762 14.8575C1.68627 14.7879 1.75509 14.7186 1.82408 14.6493C1.92968 14.543 2.03405 14.4355 2.13844 14.328C2.20535 14.2605 2.27232 14.1931 2.33937 14.1257C2.3705 14.0934 2.40163 14.061 2.4337 14.0277C2.6513 13.8129 2.6513 13.8129 2.81491 13.8111C2.96891 13.8914 3.10633 13.9824 3.24733 14.084C3.30659 14.1258 3.36584 14.1676 3.42689 14.2107C3.55068 14.2991 3.67422 14.3878 3.7975 14.4768C4.2336 14.799 4.2336 14.799 4.75001 14.875C4.92843 14.7754 4.98316 14.6763 5.04622 14.4843C5.09102 14.3093 5.1285 14.1341 5.16408 13.957C5.17681 13.8973 5.18954 13.8376 5.20265 13.776C5.22778 13.6578 5.25255 13.5396 5.27693 13.4213C5.32787 13.1761 5.38266 12.9318 5.43751 12.6875C5.68501 12.6875 5.93251 12.6875 6.18751 12.6875C6.18461 12.6268 6.18171 12.566 6.17873 12.5034C6.1003 10.0858 7.1723 7.71739 8.79372 5.96436C8.84117 5.91424 8.88862 5.86413 8.93751 5.8125C8.98561 5.7611 9.03371 5.7097 9.08327 5.65674C10.5539 4.13141 12.6046 3.17976 14.6875 2.875C14.7267 2.86834 14.766 2.86168 14.8064 2.85481C15.1137 2.80991 15.4044 2.81768 15.7144 2.83716C17.0177 2.91449 17.0177 2.91449 18.133 2.28719C18.215 2.21125 18.2959 2.13409 18.3755 2.05563C18.5898 1.85231 18.8267 1.67744 19.0625 1.5C19.3443 1.76578 19.5768 2.06043 19.8125 2.36719C19.8502 2.41577 19.8879 2.46435 19.9268 2.5144C20.0963 2.7337 20.262 2.95351 20.4185 3.18237C20.6049 3.43171 20.7709 3.53059 21.0625 3.625C21.3801 3.67037 21.5979 3.60241 21.8816 3.47241C22.1978 3.21227 22.2912 2.84615 22.3477 2.45703C22.3549 2.41232 22.3621 2.36761 22.3695 2.32155C22.3931 2.17283 22.4154 2.02395 22.4375 1.875C22.4552 1.75927 22.473 1.64355 22.4907 1.52783C22.5366 1.22704 22.5811 0.92608 22.625 0.625ZM23.1875 5.75C23.3096 5.96585 23.4399 6.14359 23.6094 6.32422C24.1005 6.86906 24.4618 7.48465 24.8125 8.125C24.8454 8.18325 24.8783 8.2415 24.9121 8.30151C25.5345 9.46184 25.8054 10.7651 25.9375 12.0625C26.5314 11.5417 26.8321 10.5868 26.8943 9.8269C26.9395 8.81404 26.6488 7.87878 25.9766 7.10938C25.8813 7.00937 25.785 6.91033 25.6875 6.8125C25.6491 6.77262 25.6107 6.73274 25.5711 6.69165C24.9469 6.09151 24.0497 5.75 23.1875 5.75ZM4.62306 17.5845C4.09287 18.2921 3.96916 19.0105 4.06251 19.875C4.20667 20.5847 4.64113 21.1513 5.21071 21.5818C5.45982 21.7421 5.71778 21.8499 6.00001 21.9375C6.05621 21.9554 6.05621 21.9554 6.11354 21.9736C6.87577 22.1209 7.5806 21.9841 8.23439 21.5742C8.74599 21.2067 9.10671 20.7966 9.31251 20.1875C9.3118 19.9573 9.25966 19.8857 9.10402 19.7134C9.04107 19.6549 8.97773 19.5968 8.91408 19.5391C8.23379 18.8883 7.75131 18.1227 7.30894 17.2972C7.22722 17.1451 7.14292 16.9944 7.05861 16.8438C7.01821 16.7708 6.97783 16.6979 6.93751 16.625C6.00713 16.5496 5.23409 16.8771 4.62306 17.5845Z" fill="#FEB41F"/>
<path id="Vector_2" d="M22.625 0.625C23.36 0.660062 24.0784 0.766178 24.8047 0.878906C24.9211 0.89672 25.0376 0.914501 25.1541 0.932251C25.4361 0.975305 25.7181 1.01878 26 1.0625C25.9924 1.11315 25.9849 1.1638 25.9771 1.21599C25.9486 1.40801 25.9207 1.6001 25.8932 1.79225C25.8755 1.91466 25.8572 2.03698 25.8389 2.1593C25.6736 3.06944 25.6736 3.06944 25.8594 3.94531C26.0654 4.20862 26.2331 4.34144 26.5684 4.39648C27.3379 4.44645 27.9214 3.81379 28.4879 3.36252C28.5344 3.32563 28.5808 3.28874 28.6287 3.25073C28.6701 3.21751 28.7116 3.1843 28.7543 3.15007C28.8734 3.06368 28.9917 2.99921 29.125 2.9375C29.5587 3.44802 29.9552 3.98229 30.3501 4.52295C30.4797 4.70032 30.6104 4.87665 30.7437 5.05127C30.7702 5.08604 30.7967 5.12081 30.824 5.15663C30.8933 5.24725 30.963 5.33762 31.0327 5.42798C31.125 5.5625 31.125 5.5625 31.125 5.6875C31.0259 5.77408 31.0259 5.77408 30.8872 5.87354C30.8116 5.92834 30.8116 5.92834 30.7344 5.98425C30.6802 6.02296 30.6261 6.06168 30.5703 6.10156C30.461 6.18108 30.3517 6.26066 30.2424 6.34033C30.1897 6.3787 30.1369 6.41707 30.0826 6.4566C29.3943 6.93291 29.3943 6.93291 29.0039 7.64844C28.9975 8.01784 29.1016 8.26824 29.332 8.55469C29.6397 8.79798 29.9965 8.84026 30.3765 8.89307C30.4231 8.89983 30.4697 8.90658 30.5178 8.91355C30.6655 8.93488 30.8132 8.95573 30.9609 8.97656C31.0616 8.99102 31.1623 9.0055 31.2629 9.02002C31.5086 9.05538 31.7543 9.0903 32 9.125C32.009 9.50505 31.9758 9.8636 31.9202 10.2393C31.9079 10.3247 31.9079 10.3247 31.8954 10.4119C31.8782 10.5314 31.8608 10.651 31.8432 10.7705C31.8164 10.9534 31.79 11.1364 31.7638 11.3193C31.7469 11.4359 31.7301 11.5524 31.7131 11.6689C31.7053 11.7235 31.6974 11.7781 31.6893 11.8343C31.6818 11.8852 31.6742 11.9361 31.6665 11.9886C31.6567 12.0554 31.6567 12.0554 31.6468 12.1236C31.6248 12.2512 31.5955 12.3749 31.5625 12.5C31.5096 12.4924 31.4568 12.4849 31.4023 12.4771C31.2024 12.4487 31.0026 12.4208 30.8026 12.3932C30.7168 12.3812 30.631 12.3691 30.5452 12.3568C29.6009 12.1774 29.6009 12.1774 28.6875 12.3477C28.4289 12.5578 28.292 12.7411 28.2219 13.0688C28.164 13.7974 28.8629 14.4475 29.2823 14.9795C29.3256 15.0351 29.3688 15.0907 29.4133 15.1479C29.4525 15.1976 29.4917 15.2473 29.5321 15.2986C29.6217 15.4325 29.661 15.53 29.6875 15.6875C29.6584 15.7088 29.6293 15.73 29.5993 15.752C29.458 15.8553 29.3169 15.9589 29.1758 16.0625C29.1233 16.1011 29.0707 16.1396 29.0166 16.1794C28.5429 16.5284 28.0754 16.8851 27.6105 17.2457C27.5317 17.3065 27.5317 17.3065 27.4512 17.3684C27.4047 17.4044 27.3583 17.4404 27.3104 17.4775C27.1875 17.5625 27.1875 17.5625 27 17.625C26.6343 17.1891 26.2869 16.7425 25.9477 16.2858C25.6203 15.7838 25.6203 15.7838 25.125 15.5C24.7674 15.4629 24.4928 15.4794 24.1875 15.6875C23.9339 15.9523 23.8327 16.1262 23.7734 16.4961C23.7665 16.5377 23.7596 16.5792 23.7525 16.6221C23.6523 17.2455 23.5768 17.8734 23.5 18.5C22.888 18.4635 22.2852 18.3888 21.6786 18.3027C21.5257 18.281 21.3726 18.2597 21.2196 18.2385C21.1216 18.2248 21.0236 18.211 20.9255 18.1973C20.8802 18.1909 20.8348 18.1846 20.788 18.1781C20.5848 18.1491 20.3853 18.1184 20.1875 18.0625C20.2056 17.8945 20.2238 17.7265 20.2422 17.5586C20.2477 17.5078 20.2533 17.4569 20.259 17.4046C20.295 17.08 20.3368 16.7569 20.3828 16.4336C20.4977 15.7365 20.4977 15.7365 20.2693 15.0942C20.0247 14.8125 19.7629 14.7304 19.4023 14.6953C18.9186 14.7133 18.6058 14.9868 18.2462 15.2781C18.0699 15.419 17.8886 15.5527 17.7075 15.6872C17.5125 15.832 17.3188 15.9785 17.125 16.125C16.9057 16.0345 16.7992 15.9248 16.6582 15.7358C16.6177 15.6821 16.5772 15.6284 16.5354 15.573C16.4928 15.5154 16.4502 15.4578 16.4062 15.3984C16.3404 15.3104 16.3404 15.3104 16.2732 15.2206C16.1835 15.1007 16.094 14.9807 16.0046 14.8606C15.8855 14.7015 15.7646 14.5439 15.6426 14.387C15.6077 14.3418 15.5729 14.2966 15.537 14.25C15.472 14.1659 15.4067 14.082 15.3409 13.9985C15.1806 13.7885 15.125 13.7104 15.125 13.4375C15.2375 13.3233 15.2375 13.3233 15.3945 13.2075C15.4515 13.1649 15.5085 13.1223 15.5671 13.0784C15.6577 13.0125 15.6577 13.0125 15.75 12.9453C15.8084 12.9019 15.8668 12.8585 15.927 12.8137C16.1452 12.6517 16.3633 12.4898 16.5854 12.3332C16.8221 12.1638 17.0109 12.0273 17.125 11.75C17.1757 11.4109 17.1688 11.1005 17.0312 10.7852C16.5281 10.2694 15.9649 10.2245 15.2852 10.1406C15.1375 10.1214 14.99 10.1018 14.8424 10.082C14.7511 10.0698 14.6597 10.0581 14.5682 10.0467C14.2568 10.0068 14.2568 10.0068 14.1875 9.9375C14.1959 9.30199 14.2958 8.66686 14.3848 8.03862C14.4066 7.88416 14.4278 7.72962 14.449 7.57507C14.4627 7.47672 14.4764 7.37837 14.4902 7.28003C14.4966 7.23388 14.5029 7.18773 14.5094 7.14019C14.5553 6.8197 14.5553 6.8197 14.625 6.75C15.0166 6.7321 15.3836 6.78197 15.7695 6.84375C16.6925 7.00854 16.6925 7.00854 17.5625 6.75C17.7098 6.6037 17.7098 6.6037 17.8125 6.4375C17.8383 6.40012 17.8641 6.36273 17.8906 6.32422C17.9989 6.0083 17.9691 5.76226 17.8425 5.46289C17.6627 5.11903 17.4218 4.82046 17.1836 4.51562C17.1386 4.45738 17.0936 4.39913 17.0472 4.33911C16.9639 4.23123 16.8804 4.12349 16.7966 4.01593C16.6964 3.88655 16.5978 3.75619 16.5 3.625C16.5924 3.38921 16.7159 3.29642 16.9258 3.16016C17.0984 3.04762 17.2452 2.94241 17.3896 2.79492C17.6248 2.56375 17.8859 2.37703 18.1523 2.18359C18.2044 2.14536 18.2565 2.10714 18.3102 2.06775C18.5778 1.87203 18.8472 1.68111 19.125 1.5C19.3976 1.82088 19.6595 2.14471 19.9021 2.48877C19.9396 2.54143 19.977 2.5941 20.0156 2.64836C20.0899 2.75346 20.1634 2.85917 20.2359 2.96553C20.4669 3.29071 20.6781 3.49911 21.0625 3.625C21.3801 3.67037 21.5979 3.60241 21.8816 3.47241C22.1978 3.21227 22.2912 2.84615 22.3477 2.45703C22.3549 2.41232 22.362 2.36761 22.3695 2.32155C22.3931 2.17283 22.4154 2.02395 22.4375 1.875C22.4552 1.75927 22.473 1.64355 22.4907 1.52783C22.5366 1.22704 22.5811 0.92608 22.625 0.625ZM23.1875 5.75C23.3096 5.96585 23.4399 6.14359 23.6094 6.32422C24.1004 6.86906 24.4618 7.48465 24.8125 8.125C24.8454 8.18325 24.8782 8.2415 24.9121 8.30151C25.5345 9.46184 25.8054 10.7651 25.9375 12.0625C26.5314 11.5417 26.8321 10.5868 26.8943 9.8269C26.9395 8.81404 26.6488 7.87878 25.9766 7.10938C25.8813 7.00937 25.785 6.91033 25.6875 6.8125C25.6491 6.77262 25.6106 6.73274 25.571 6.69165C24.9468 6.09151 24.0497 5.75 23.1875 5.75Z" fill="#1CC7EA"/>
<path id="Vector_3" d="M5.43751 12.6875C5.68501 12.6875 5.93251 12.6875 6.18751 12.6875C6.19291 12.7753 6.19831 12.8631 6.20387 12.9536C6.28334 14.0982 6.48972 15.1825 6.88014 16.2625C6.93751 16.4375 6.93751 16.4375 6.93751 16.625C6.8928 16.6259 6.84809 16.6268 6.80202 16.6277C6.0073 16.6657 5.30971 16.9206 4.75001 17.5C4.57943 17.7183 4.44058 17.942 4.31251 18.1875C4.28996 18.2302 4.2674 18.2729 4.24415 18.3169C4.0072 18.8764 4.03464 19.681 4.22267 20.25C4.53858 20.9663 5.03508 21.5205 5.77736 21.8086C5.85083 21.8305 5.92431 21.8524 6.00001 21.875C6.03611 21.8863 6.0722 21.8976 6.10939 21.9092C6.87064 22.0625 7.57878 21.9189 8.23439 21.5156C8.68056 21.1969 8.95701 20.8202 9.18483 20.325C9.25001 20.1875 9.25001 20.1875 9.37501 20C9.42803 20.0424 9.48104 20.0848 9.53566 20.1284C9.92171 20.4352 10.3104 20.7334 10.7149 21.0156C11.4159 21.5116 11.9973 22.136 12.1498 23.0185C12.1128 23.271 11.9535 23.4037 11.7783 23.5757C11.7429 23.6115 11.7074 23.6472 11.6708 23.6841C11.5958 23.7594 11.5203 23.8343 11.4445 23.9088C11.3283 24.0233 11.2139 24.1393 11.0996 24.2556C11.0265 24.3286 10.9532 24.4014 10.8799 24.4741C10.8456 24.509 10.8114 24.5439 10.7761 24.5798C10.5374 24.8113 10.5374 24.8113 10.3725 24.8166C10.2102 24.7283 10.0614 24.6299 9.91066 24.5229C9.84548 24.4778 9.7803 24.4326 9.71315 24.386C9.61024 24.3142 9.50759 24.242 9.40544 24.1691C9.3063 24.0986 9.20614 24.0295 9.10597 23.9604C9.04668 23.9186 8.9874 23.8768 8.92631 23.8337C8.71009 23.731 8.60208 23.7475 8.37501 23.8125C8.18458 23.9458 8.14833 24.091 8.09767 24.3125C8.07495 24.4106 8.07495 24.4106 8.05177 24.5107C7.94898 24.9859 7.84863 25.4614 7.75001 25.9375C6.98689 25.9375 6.22376 25.9375 5.43751 25.9375C5.23048 24.9805 5.23048 24.9805 5.16644 24.6791C5.1405 24.5618 5.1405 24.5618 5.11403 24.4421C5.09668 24.3619 5.07933 24.2818 5.06146 24.1991C4.99025 23.9642 4.99025 23.9642 4.81251 23.8125C4.63683 23.7534 4.54144 23.7351 4.36581 23.7982C4.3222 23.8244 4.27859 23.8505 4.23366 23.8774C4.18505 23.9065 4.13643 23.9357 4.08635 23.9656C3.79754 24.1536 3.52178 24.3586 3.24721 24.5667C3.18032 24.6156 3.18032 24.6156 3.11207 24.6655C3.07245 24.6953 3.03283 24.725 2.992 24.7557C2.87501 24.8125 2.87501 24.8125 2.75809 24.8122C2.5544 24.717 2.41335 24.5612 2.2588 24.4021C2.22448 24.3675 2.19015 24.3329 2.15478 24.2973C2.04545 24.1869 1.93679 24.0759 1.82814 23.9648C1.75405 23.8898 1.67991 23.8148 1.60573 23.7399C1.42416 23.5562 1.24318 23.372 1.06251 23.1875C1.25381 22.8287 1.45823 22.4915 1.69923 22.1641C1.75353 22.0894 1.80781 22.0147 1.86207 21.9399C1.90759 21.8773 1.95311 21.8146 2.00001 21.75C2.15397 21.5191 2.14938 21.3979 2.12501 21.125C1.97443 20.9064 1.76345 20.8752 1.51564 20.8125C1.47482 20.802 1.43401 20.7916 1.39195 20.7808C1.01109 20.6853 0.626713 20.6099 0.240737 20.5383C0.0625142 20.5 0.0625142 20.5 1.42106e-05 20.4375C-0.00552027 20.2709 -0.00718871 20.1058 -0.00608931 19.9392C-0.00600087 19.8894 -0.00591244 19.8395 -0.00582132 19.7881C-0.00547036 19.6283 -0.00468567 19.4684 -0.00389204 19.3086C-0.00357873 19.2005 -0.00329352 19.0924 -0.00303755 18.9843C-0.00234696 18.7187 -0.00126728 18.4531 1.42106e-05 18.1875C0.979564 17.9409 0.979564 17.9409 1.31203 17.865C1.39211 17.8464 1.47219 17.8278 1.5547 17.8086C1.61791 17.7948 1.61791 17.7948 1.68239 17.7806C1.95179 17.7175 1.95179 17.7175 2.12501 17.5C2.15591 17.2084 2.10836 17.0529 1.94533 16.8125C1.90609 16.7541 1.86686 16.6957 1.82643 16.6355C1.57423 16.276 1.32039 15.9179 1.06251 15.5625C1.16301 15.3151 1.33436 15.1444 1.51906 14.9578C1.55158 14.9247 1.58411 14.8916 1.61762 14.8575C1.68627 14.7879 1.75509 14.7186 1.82408 14.6493C1.92968 14.543 2.03405 14.4355 2.13844 14.328C2.20535 14.2605 2.27232 14.1931 2.33937 14.1257C2.3705 14.0934 2.40163 14.061 2.4337 14.0277C2.6513 13.8129 2.6513 13.8129 2.81491 13.8111C2.96891 13.8914 3.10633 13.9824 3.24733 14.084C3.30659 14.1258 3.36584 14.1676 3.42689 14.2107C3.55068 14.2991 3.67422 14.3878 3.7975 14.4768C4.2336 14.799 4.2336 14.799 4.75001 14.875C4.92843 14.7754 4.98316 14.6763 5.04622 14.4843C5.09102 14.3093 5.1285 14.1341 5.16408 13.957C5.18317 13.8674 5.18317 13.8674 5.20265 13.776C5.22778 13.6578 5.25255 13.5396 5.27693 13.4213C5.32787 13.1761 5.38266 12.9318 5.43751 12.6875Z" fill="#C9DEFE"/>
<path id="Vector_4" d="M22.6189 5.72118C22.9025 5.69472 23.1019 5.68823 23.3384 5.85888C23.4905 6.02282 23.62 6.19298 23.75 6.37499C23.8019 6.44362 23.8539 6.51213 23.906 6.58056C24.2735 7.07106 24.5844 7.5861 24.875 8.12499C24.9076 8.18292 24.9403 8.24085 24.9739 8.30053C25.4854 9.252 25.8504 10.4207 25.9375 11.5C25.9451 11.5546 25.9528 11.6092 25.9607 11.6655C25.9838 11.9255 25.9932 12.1091 25.8384 12.3271C24.9996 13.1084 23.9475 13.4648 22.8176 13.4548C21.8672 13.4092 20.9911 12.9647 20.3125 12.3125C19.9279 11.8739 19.6505 11.4165 19.4375 10.875C19.4155 10.8246 19.3935 10.7743 19.3708 10.7224C19.1091 10.005 19.1332 8.92492 19.4216 8.22436C19.4475 8.17094 19.4733 8.11753 19.5 8.06249C19.5265 8.00457 19.553 7.94664 19.5803 7.88696C20.0833 6.87678 20.9672 6.18153 22.0254 5.82421C22.2213 5.77311 22.4192 5.7529 22.6189 5.72118Z" fill="#FEB41F"/>
<path id="Vector_5" d="M13.3125 27.5C15.1481 27.5 16.9838 27.5 18.875 27.5C18.8776 27.9615 18.8802 28.423 18.8828 28.8984C18.884 29.0428 18.8851 29.1872 18.8863 29.336C18.8866 29.4524 18.887 29.5687 18.8872 29.6851C18.8879 29.7439 18.8885 29.8028 18.8892 29.8635C18.8893 30.5007 18.8322 31.0276 18.375 31.5C17.895 31.9547 17.3754 32.0195 16.7327 32.0188C16.6529 32.0192 16.6529 32.0192 16.5714 32.0196C16.4597 32.02 16.348 32.02 16.2363 32.0197C16.0671 32.0195 15.8979 32.021 15.7286 32.0226C15.0141 32.0253 14.377 32.0171 13.7974 31.5466C13.5133 31.2644 13.3251 30.9399 13.305 30.5364C13.3051 30.4804 13.3053 30.4243 13.3054 30.3665C13.3054 30.3018 13.3054 30.2371 13.3054 30.1705C13.3058 30.103 13.3061 30.0354 13.3064 29.9658C13.3065 29.9034 13.3065 29.841 13.3066 29.7767C13.3069 29.5438 13.3078 29.311 13.3086 29.0781C13.3099 28.5573 13.3112 28.0366 13.3125 27.5Z" fill="#A0A0A0"/>
<path id="Vector_6" d="M11.875 6.25C12.1175 6.33085 12.1604 6.43169 12.2969 6.64453C12.3365 6.70488 12.3761 6.76522 12.417 6.82739C12.5 7 12.5 7 12.5066 7.12744C12.3955 7.3244 12.2149 7.43636 12.0351 7.56641C10.8848 8.43836 10.1201 9.67263 9.74998 11.0625C9.73417 11.1155 9.71835 11.1685 9.70206 11.2232C9.56111 11.7254 9.53411 12.1949 9.53904 12.7148C9.53831 12.7911 9.53759 12.8674 9.53684 12.9459C9.5385 13.4669 9.61047 13.9362 9.74998 14.4375C9.76239 14.4831 9.77481 14.5288 9.7876 14.5758C10.2158 16.0713 11.242 17.5336 12.6142 18.315C12.8598 18.4457 13.1106 18.5653 13.362 18.6844C14.7636 19.3505 15.8032 20.1358 16.3889 21.6328C16.5681 22.1571 16.6044 22.6376 16.625 23.1875C16.2537 23.1875 15.8825 23.1875 15.5 23.1875C15.4871 23.0509 15.4742 22.9142 15.4609 22.7734C15.3712 22.0287 15.0768 21.3621 14.5625 20.8125C14.5236 20.7704 14.4848 20.7282 14.4448 20.6848C14.0628 20.3094 13.6136 20.1041 13.1361 19.8777C10.9978 18.8536 9.50074 17.2704 8.6992 15.0352C8.29363 13.7308 8.2185 12.3261 8.56248 11C8.57456 10.9393 8.58665 10.8787 8.5991 10.8162C8.83434 9.6934 9.45541 8.61972 10.1875 7.75C10.229 7.70005 10.2706 7.6501 10.3135 7.59863C10.7589 7.08269 11.284 6.59492 11.875 6.25Z" fill="#FFAA00"/>
<path id="Vector_7" d="M13.3125 29.75C15.1481 29.75 16.9837 29.75 18.875 29.75C18.875 30.9834 18.875 30.9834 18.375 31.5C17.895 31.9547 17.3754 32.0195 16.7327 32.0188C16.6528 32.0192 16.6528 32.0192 16.5714 32.0196C16.4597 32.02 16.348 32.02 16.2363 32.0197C16.067 32.0195 15.8979 32.021 15.7286 32.0226C15.0141 32.0253 14.377 32.0171 13.7974 31.5466C13.5448 31.2957 13.3984 31.031 13.3125 30.6875C13.3125 30.3781 13.3125 30.0687 13.3125 29.75Z" fill="#EAEAEA"/>
<path id="Vector_8" d="M13.3125 27.5C15.1481 27.5 16.9837 27.5 18.875 27.5C18.875 27.8713 18.875 28.2425 18.875 28.625C17.0394 28.625 15.2038 28.625 13.3125 28.625C13.3125 28.2537 13.3125 27.8825 13.3125 27.5Z" fill="#EAEAEA"/>
<path id="Vector_9" d="M1.87497 3.12499C2.02243 3.19213 2.02243 3.19213 2.17184 3.29296C2.23138 3.333 2.29092 3.37304 2.35226 3.4143C2.42248 3.46348 2.49254 3.5129 2.56247 3.56249C2.60313 3.59132 2.64378 3.62016 2.68567 3.64986C2.97061 3.85294 3.2536 4.05863 3.53622 4.26491C3.69011 4.37691 3.84447 4.48824 3.99899 4.59936C4.04954 4.63572 4.10009 4.67209 4.15218 4.70956C4.2488 4.77904 4.34544 4.84848 4.44212 4.91787C5.1034 5.39435 5.1034 5.39435 5.18747 5.56249C5.23049 5.99991 5.23049 5.99991 5.05856 6.24999C4.87497 6.37499 4.87497 6.37499 4.67966 6.42187C4.31209 6.35073 4.05021 6.15239 3.74997 5.93749C3.7094 5.90866 3.66884 5.87983 3.62704 5.85012C3.34202 5.64703 3.0589 5.44139 2.77621 5.23507C2.62233 5.12307 2.46797 5.01174 2.31345 4.90063C2.2629 4.86426 2.21235 4.82789 2.16026 4.79043C2.06364 4.72095 1.967 4.65151 1.87032 4.58211C1.20904 4.10563 1.20904 4.10563 1.12497 3.93749C1.10031 3.67615 1.09682 3.54315 1.24216 3.3203C1.45142 3.11105 1.58305 3.10378 1.87497 3.12499Z" fill="#FFAA00"/>
<path id="Vector_10" d="M4.36718 8.52344C4.49999 8.625 4.49999 8.625 4.56249 8.75C4.60585 9.19079 4.60585 9.19079 4.45214 9.40071C4.18992 9.65246 3.8254 9.70256 3.4829 9.78662C3.37068 9.81531 3.37068 9.81531 3.25618 9.84458C3.05783 9.89495 2.85925 9.94427 2.66054 9.99322C2.45924 10.0433 2.25848 10.0955 2.05761 10.1472C1.90383 10.186 1.75003 10.2247 1.59619 10.2632C1.52423 10.2817 1.45228 10.3001 1.37815 10.3192C1.02163 10.4061 0.732713 10.4752 0.374994 10.375C0.177669 10.208 0.107423 10.0651 0.0859315 9.8125C0.0795839 9.69141 0.0795839 9.69141 0.124994 9.5625C0.445446 9.22717 0.7894 9.14731 1.23217 9.04175C1.30274 9.02416 1.37331 9.00656 1.44602 8.98844C1.59482 8.95157 1.74376 8.91519 1.8928 8.87929C2.12037 8.82439 2.34748 8.76786 2.57458 8.71106C2.71953 8.67536 2.86451 8.63975 3.00952 8.60425C3.07717 8.58746 3.14483 8.57066 3.21453 8.55336C4.02475 8.35967 4.02475 8.35967 4.36718 8.52344Z" fill="#FFA900"/>
<path id="Vector_11" d="M6.43361 0.0148926C6.64534 0.0930888 6.75927 0.251516 6.87502 0.4375C6.96381 0.666834 7.02235 0.901567 7.08107 1.14014C7.09852 1.20778 7.11596 1.27543 7.13393 1.34513C7.17053 1.48779 7.20664 1.63057 7.2423 1.77347C7.29666 1.99126 7.35243 2.20866 7.40847 2.42603C7.44395 2.56508 7.47935 2.70416 7.51467 2.84326C7.53114 2.90786 7.54761 2.97246 7.56457 3.03901C7.79401 3.96132 7.79401 3.96132 7.67189 4.24219C7.56252 4.375 7.56252 4.375 7.37502 4.5C6.93421 4.54198 6.93421 4.54198 6.74489 4.40771C6.5779 4.188 6.52257 3.9678 6.45314 3.70312C6.43795 3.64735 6.42275 3.59158 6.40709 3.53412C6.35361 3.33553 6.30179 3.13654 6.25002 2.9375C6.22814 2.85473 6.20622 2.77196 6.18428 2.68921C6.12564 2.46759 6.06795 2.24574 6.01088 2.0237C5.9882 1.93573 5.96534 1.8478 5.94229 1.75993C5.70513 0.852284 5.70513 0.852284 5.75002 0.375C5.93775 0.0875357 6.10792 0.0273688 6.43361 0.0148926Z" fill="#FFAA00"/>
<path id="Vector_12" d="M26.4819 23.4651C26.7939 23.5412 27.0166 23.791 27.25 24C27.3491 24.0847 27.4488 24.1686 27.5486 24.2525C27.6528 24.3402 27.7566 24.4285 27.8604 24.5168C28.0441 24.6727 28.2306 24.825 28.418 24.9766C28.6476 25.1647 28.8765 25.3534 29.1016 25.5469C29.1526 25.5904 29.2037 25.6339 29.2563 25.6787C29.3933 25.8331 29.4249 25.9206 29.4375 26.125C29.3126 26.5128 29.3126 26.5128 29.1367 26.6523C28.9396 26.703 28.8304 26.7224 28.625 26.6875C28.4203 26.5624 28.2438 26.4064 28.0625 26.25C27.9984 26.1958 27.9341 26.1417 27.8699 26.0876C27.731 25.9707 27.5926 25.8533 27.4543 25.7356C27.1038 25.4377 26.749 25.1444 26.3853 24.8628C26.329 24.8191 26.2728 24.7755 26.2148 24.7305C26.1645 24.692 26.1141 24.6536 26.0623 24.614C25.8748 24.4427 25.8178 24.3141 25.7969 24.0625C25.8123 23.8771 25.834 23.7775 25.9375 23.625C26.1302 23.4965 26.251 23.4579 26.4819 23.4651Z" fill="#FFAA00"/>
<path id="Vector_13" d="M27.2292 20.3649C27.3178 20.364 27.3178 20.364 27.4081 20.3631C27.5036 20.3627 27.5036 20.3627 27.6011 20.3623C27.6667 20.3619 27.7322 20.3616 27.7998 20.3612C27.9386 20.3606 28.0774 20.3602 28.2162 20.36C28.4284 20.3594 28.6406 20.3574 28.8528 20.3555C28.9876 20.355 29.1225 20.3547 29.2573 20.3545C29.3207 20.3537 29.3842 20.3529 29.4495 20.3521C30.0066 20.3539 30.0066 20.3539 30.25 20.5625C30.4063 20.7969 30.4085 20.9099 30.375 21.1875C30.2162 21.385 30.1159 21.4822 29.875 21.5625C29.7798 21.5688 29.6844 21.5718 29.589 21.5726C29.5312 21.5732 29.4734 21.5738 29.4139 21.5744C29.3516 21.5746 29.2893 21.5749 29.2251 21.5752C29.1609 21.5755 29.0967 21.5759 29.0306 21.5763C28.8947 21.5769 28.7588 21.5773 28.623 21.5775C28.4153 21.5781 28.2077 21.58 28 21.582C27.868 21.5824 27.736 21.5828 27.604 21.583C27.542 21.5838 27.4799 21.5845 27.416 21.5853C27.0173 21.584 26.7899 21.5399 26.5 21.25C26.4685 21.0601 26.4719 20.8777 26.5 20.6875C26.6985 20.4137 26.9038 20.3676 27.2292 20.3649Z" fill="#FFA900"/>
<path id="Vector_14" d="M24.1875 24.9375C24.3238 25.142 24.3286 25.2034 24.3306 25.4407C24.3318 25.537 24.3318 25.537 24.3331 25.6353C24.3332 25.7047 24.3333 25.774 24.3335 25.8455C24.3339 25.9167 24.3343 25.988 24.3347 26.0615C24.3354 26.2123 24.3357 26.3631 24.3357 26.514C24.3359 26.745 24.3382 26.9759 24.3406 27.2069C24.3409 27.3534 24.3412 27.4998 24.3413 27.6462C24.3422 27.7155 24.3431 27.7847 24.344 27.856C24.3436 27.9204 24.3432 27.9849 24.3429 28.0513C24.343 28.1079 24.3432 28.1645 24.3434 28.2228C24.3028 28.4227 24.2172 28.4966 24.0625 28.625C23.8842 28.7142 23.7603 28.7069 23.5625 28.6875C23.3937 28.575 23.2786 28.4948 23.1875 28.3125C23.1809 28.214 23.1782 28.1152 23.1774 28.0164C23.1768 27.9549 23.1762 27.8933 23.1756 27.8299C23.1753 27.7632 23.1751 27.6964 23.1748 27.6277C23.1744 27.5592 23.1741 27.4908 23.1737 27.4203C23.1731 27.2752 23.1727 27.1302 23.1725 26.9851C23.1719 26.7633 23.1699 26.5415 23.168 26.3197C23.1675 26.1789 23.1672 26.038 23.167 25.8972C23.1662 25.8309 23.1654 25.7645 23.1646 25.6962C23.1664 25.113 23.1664 25.113 23.375 24.875C23.6954 24.7003 23.8774 24.7646 24.1875 24.9375Z" fill="#FFA900"/>
<path id="Vector_15" d="M15.5 24.25C15.8713 24.25 16.2425 24.25 16.625 24.25C16.625 24.8069 16.625 25.3637 16.625 25.9375C16.2537 25.9375 15.8825 25.9375 15.5 25.9375C15.5 25.3806 15.5 24.8238 15.5 24.25Z" fill="#FFAA01"/>
</g>
<defs>
<clipPath id="clip0_619_393">
<rect width="32" height="32" fill="white"/>
</clipPath>
</defs>
</svg>
