<svg width="32" height="32" viewBox="0 0 32 32" fill="none" xmlns="http://www.w3.org/2000/svg">
<g id="Simplification" clip-path="url(#clip0_619_449)">
<path id="Vector" d="M17.125 0.249995C17.3438 0.405313 17.5467 0.575111 17.75 0.749995C17.8566 0.837495 17.9634 0.924726 18.0703 1.01171C18.2762 1.17955 18.4806 1.3487 18.6836 1.52001C18.7708 1.59278 18.8581 1.66553 18.9453 1.73828C18.9856 1.77273 19.0259 1.80719 19.0674 1.84269C19.888 2.52279 20.8884 2.51623 21.9103 2.60011C22.8351 2.6769 23.6717 2.77253 24.3125 3.49999C24.3395 3.53061 24.3665 3.56123 24.3943 3.59277C24.9245 4.25357 24.8815 5.22766 24.9471 6.03335C25.0246 6.96818 25.1045 7.77213 25.75 8.5C25.835 8.6039 25.9196 8.70809 26.0039 8.8125C26.179 9.02648 26.3557 9.23883 26.5342 9.44995C26.573 9.49623 26.6119 9.54252 26.6519 9.59021C26.7285 9.68153 26.8055 9.77253 26.883 9.86315C27.3199 10.3857 27.6022 10.959 27.5818 11.6531C27.5066 12.2749 27.2818 12.725 26.875 13.1875C26.7321 13.3586 26.5907 13.5309 26.4492 13.7031C26.4113 13.7491 26.3734 13.7952 26.3343 13.8426C25.2756 15.1286 25.0349 16.0229 24.8999 17.6766C24.833 18.4878 24.7354 19.2322 24.116 19.8132C23.6013 20.2315 23.1488 20.345 22.5 20.4141C22.4353 20.4216 22.3706 20.4292 22.304 20.437C21.7869 20.4955 21.2693 20.5312 20.75 20.5625C20.7735 20.617 20.797 20.6715 20.8212 20.7276C21.3656 21.9911 21.9019 23.2577 22.4292 24.5285C22.6816 25.1365 22.9349 25.7441 23.1882 26.3518C23.2666 26.5398 23.3449 26.7278 23.4233 26.9158C23.4482 26.9756 23.4731 27.0353 23.4988 27.0969C23.5483 27.2159 23.5978 27.3348 23.6472 27.4538C23.7807 27.775 23.9155 28.0956 24.0519 28.4156C24.0953 28.5183 24.0953 28.5183 24.1397 28.6231C24.1956 28.7551 24.2519 28.8869 24.3086 29.0186C24.3462 29.1077 24.3462 29.1077 24.3846 29.1985C24.4069 29.2508 24.4292 29.3031 24.4522 29.357C24.5 29.5 24.5 29.5 24.5 29.75C24.2862 29.8228 24.1553 29.8013 23.9407 29.7373C23.8794 29.7194 23.818 29.7014 23.7549 29.683C23.656 29.6532 23.656 29.6532 23.5552 29.6228C23.4153 29.5821 23.2754 29.5415 23.1355 29.5008C22.9151 29.4361 22.6949 29.3709 22.4747 29.3053C22.2622 29.2423 22.0494 29.1805 21.8364 29.1189C21.7708 29.0989 21.7052 29.0789 21.6375 29.0583C21.3731 28.9824 21.1796 28.9295 20.9051 28.9699C20.7186 29.0813 20.6561 29.1705 20.5576 29.3633C20.5254 29.4248 20.4931 29.4864 20.4598 29.5498C20.4101 29.6489 20.4101 29.6489 20.3594 29.75C20.2883 29.8865 20.2172 30.023 20.146 30.1594C20.111 30.2274 20.076 30.2954 20.04 30.3654C19.8939 30.6463 19.7407 30.923 19.586 31.1992C19.5483 31.2669 19.5483 31.2669 19.51 31.3361C19.4645 31.4177 19.4186 31.4992 19.3723 31.5804C19.3186 31.6766 19.2696 31.7753 19.2212 31.8743C19.1895 31.9158 19.1577 31.9572 19.125 32C18.9628 32.0079 18.9628 32.0079 18.8125 32C18.4115 31.102 18.0232 30.2 17.6492 29.2904C17.6331 29.2512 17.617 29.212 17.6004 29.1716C17.5837 29.1311 17.567 29.0906 17.5499 29.0488C17.2446 28.3071 16.9346 27.5674 16.6258 26.8272C16.5711 26.696 16.5164 26.5648 16.4617 26.4337C16.4114 26.3129 16.361 26.1922 16.3106 26.0715C16.288 26.0173 16.2654 25.963 16.242 25.9071C16.2224 25.86 16.2027 25.8128 16.1825 25.7643C16.1205 25.6141 16.0601 25.4634 16 25.3125C15.6924 25.9544 15.4098 26.6041 15.1396 27.2626C15.049 27.4835 14.9578 27.7041 14.8666 27.9248C14.8186 28.0411 14.7706 28.1574 14.7226 28.2736C14.4701 28.8856 14.216 29.4968 13.9608 30.1077C13.9118 30.2251 13.8629 30.3425 13.814 30.46C13.7456 30.6245 13.6769 30.7889 13.6082 30.9534C13.5882 31.0014 13.5683 31.0495 13.5477 31.099C13.4189 31.4063 13.2768 31.7034 13.125 32C12.9336 31.9812 12.8404 31.9708 12.7144 31.8203C12.6867 31.7691 12.6591 31.718 12.6306 31.6653C12.5988 31.6076 12.567 31.5499 12.5341 31.4905C12.4844 31.3966 12.4844 31.3966 12.4336 31.3008C12.3987 31.237 12.3638 31.1732 12.3278 31.1075C12.2175 30.9055 12.1087 30.7028 12 30.5C11.8941 30.3043 11.7878 30.1088 11.6814 29.9134C11.6161 29.7931 11.5511 29.6727 11.4864 29.5521C11.4572 29.4977 11.4279 29.4434 11.3977 29.3874C11.3721 29.3396 11.3465 29.2918 11.3202 29.2426C11.2511 29.1158 11.2511 29.1158 11.125 29C10.7058 28.963 10.3553 29.0594 9.95607 29.1799C9.89356 29.1981 9.83104 29.2163 9.76664 29.235C9.5682 29.2928 9.37002 29.3514 9.17189 29.4102C8.91005 29.4878 8.64798 29.5646 8.38576 29.6409C8.32573 29.659 8.2657 29.6771 8.20385 29.6957C8.14793 29.712 8.092 29.7282 8.03438 29.745C7.98537 29.7596 7.93636 29.7741 7.88586 29.7892C7.7329 29.8154 7.64289 29.8107 7.50001 29.75C7.42234 29.517 7.46158 29.4641 7.55592 29.2422C7.58413 29.1749 7.61234 29.1077 7.6414 29.0384C7.68936 28.9266 7.68936 28.9266 7.7383 28.8125C7.77212 28.7324 7.80588 28.6523 7.83958 28.5722C7.91429 28.3948 7.98932 28.2175 8.06456 28.0403C8.19358 27.7361 8.32115 27.4314 8.4485 27.1265C8.49424 27.017 8.53998 26.9075 8.58572 26.798C8.60883 26.7427 8.63193 26.6874 8.65573 26.6304C8.77585 26.3431 8.89623 26.0558 9.01662 25.7685C9.04092 25.7105 9.06523 25.6525 9.09027 25.5928C9.18908 25.357 9.2879 25.1212 9.38672 24.8854C9.55734 24.4783 9.72793 24.0712 9.89845 23.6641C9.92185 23.6082 9.94525 23.5523 9.96936 23.4948C10.3782 22.5185 10.7842 21.5411 11.1875 20.5625C11.1267 20.5578 11.1267 20.5578 11.0647 20.553C8.71455 20.3695 8.71455 20.3695 8.18751 20.0625C8.1486 20.0407 8.10969 20.019 8.06959 19.9966C7.60491 19.7043 7.33183 19.2074 7.18751 18.6875C7.14247 18.4217 7.11568 18.155 7.08986 17.8867C7.08204 17.8123 7.07422 17.7378 7.06616 17.6611C7.031 17.3242 6.99846 16.9871 6.96925 16.6497C6.85981 15.4127 6.35391 14.7257 5.57017 13.8051C4.84283 12.9489 4.33765 12.2915 4.42412 11.1208C4.49038 10.5234 4.86734 10.1234 5.25001 9.6875C6.42411 8.32204 6.88672 7.42824 7.03763 5.58973C7.11516 4.65603 7.22057 3.86794 7.92189 3.19921C8.38434 2.82687 8.89824 2.71403 9.47829 2.66601C9.53959 2.66002 9.60088 2.65403 9.66404 2.64786C9.85799 2.62894 10.052 2.61119 10.2461 2.59374C11.5491 2.51538 11.5491 2.51538 12.707 1.96874C12.7638 1.92532 12.8205 1.88189 12.8789 1.83715C13.1228 1.63839 13.3613 1.43399 13.5993 1.22827C14.5883 0.373924 15.7925 -0.571254 17.125 0.249995Z" fill="#FED681"/>
<path id="Vector_2" d="M17.6875 4.56251C17.727 4.5729 17.7666 4.58329 17.8073 4.594C19.59 5.06763 21.1852 6.20974 22.125 7.81251C22.4154 8.32013 22.6484 8.84059 22.8359 9.39454C22.8509 9.43854 22.8658 9.48255 22.8811 9.52788C23.3165 10.8851 23.2483 12.4039 22.8125 13.75C22.7878 13.8267 22.763 13.9034 22.7375 13.9824C22.0689 15.8484 20.6938 17.2314 18.9426 18.0894C17.4043 18.7726 15.5491 18.9664 13.9375 18.4375C13.8911 18.4224 13.8447 18.4073 13.7969 18.3918C11.8972 17.754 10.3935 16.4185 9.49097 14.6321C8.68105 12.9209 8.58158 10.9571 9.18556 9.17045C9.85447 7.32986 11.2328 5.82669 13.0024 4.99244C14.4627 4.33794 16.132 4.13148 17.6875 4.56251Z" fill="#FF8000"/>
<path id="Vector_3" d="M11.1875 20.5625C12.0877 20.5336 12.6169 20.8861 13.2687 21.4697C13.4835 21.6572 13.7103 21.8296 13.9356 22.0043C14.1548 22.1746 14.3691 22.3493 14.582 22.5273C15.1565 22.98 15.6402 23.0756 16.375 23C16.8462 22.8953 17.1979 22.6826 17.5625 22.375C17.6137 22.3337 17.6648 22.2925 17.7175 22.25C17.9651 22.05 18.2103 21.8477 18.4505 21.6389C19.7017 20.5539 19.7017 20.5539 20.4819 20.5603C20.5322 20.5606 20.5826 20.5609 20.6344 20.5613C20.6725 20.5617 20.7107 20.5621 20.75 20.5625C21.3184 21.8809 21.8789 23.2024 22.4292 24.5285C22.6816 25.1365 22.9349 25.7441 23.1882 26.3518C23.2666 26.5398 23.3449 26.7278 23.4233 26.9158C23.4482 26.9756 23.4731 27.0353 23.4988 27.0969C23.5483 27.2159 23.5978 27.3348 23.6472 27.4538C23.7807 27.775 23.9155 28.0956 24.0519 28.4156C24.0809 28.4841 24.1098 28.5525 24.1397 28.6231C24.1956 28.7551 24.2519 28.8869 24.3086 29.0186C24.3337 29.078 24.3587 29.1374 24.3846 29.1985C24.4069 29.2508 24.4292 29.3031 24.4522 29.357C24.5 29.5 24.5 29.5 24.5 29.75C24.2861 29.8228 24.1553 29.8013 23.9407 29.7373C23.8794 29.7194 23.818 29.7014 23.7549 29.683C23.689 29.6631 23.6231 29.6433 23.5552 29.6228C23.4153 29.5821 23.2754 29.5415 23.1355 29.5008C22.9151 29.4361 22.6949 29.3709 22.4747 29.3053C22.2622 29.2423 22.0494 29.1805 21.8364 29.1189C21.7708 29.0989 21.7052 29.0789 21.6375 29.0583C21.3731 28.9824 21.1796 28.9295 20.9051 28.9699C20.7186 29.0813 20.6561 29.1705 20.5576 29.3633C20.5254 29.4248 20.4931 29.4864 20.4598 29.5498C20.4267 29.6159 20.3935 29.6819 20.3594 29.75C20.2883 29.8865 20.2172 30.023 20.146 30.1594C20.111 30.2274 20.076 30.2954 20.04 30.3654C19.8939 30.6463 19.7407 30.923 19.5859 31.1992C19.5609 31.2444 19.5358 31.2895 19.51 31.3361C19.4645 31.4178 19.4186 31.4992 19.3723 31.5804C19.3186 31.6766 19.2696 31.7753 19.2212 31.8743C19.1895 31.9158 19.1577 31.9572 19.125 32C18.9627 32.0079 18.9627 32.0079 18.8125 32C18.4115 31.102 18.0232 30.2 17.6492 29.2904C17.6331 29.2512 17.617 29.212 17.6004 29.1716C17.5754 29.1108 17.5754 29.1108 17.5499 29.0488C17.2446 28.3071 16.9346 27.5674 16.6258 26.8272C16.5711 26.696 16.5164 26.5648 16.4617 26.4337C16.4113 26.3129 16.361 26.1922 16.3106 26.0715C16.288 26.0173 16.2654 25.963 16.242 25.9071C16.2224 25.86 16.2027 25.8128 16.1825 25.7643C16.1205 25.6141 16.0601 25.4634 16 25.3125C15.6924 25.9544 15.4098 26.6041 15.1396 27.2626C15.049 27.4835 14.9578 27.7042 14.8666 27.9248C14.8186 28.0411 14.7706 28.1574 14.7226 28.2736C14.4701 28.8856 14.216 29.4968 13.9608 30.1077C13.9118 30.2251 13.8629 30.3425 13.814 30.46C13.7456 30.6245 13.6769 30.7889 13.6082 30.9534C13.5782 31.0255 13.5782 31.0255 13.5477 31.099C13.4189 31.4063 13.2768 31.7034 13.125 32C12.9336 31.9812 12.8404 31.9708 12.7144 31.8203C12.6867 31.7691 12.6591 31.718 12.6306 31.6653C12.5988 31.6076 12.5669 31.5499 12.5341 31.4905C12.501 31.4279 12.4678 31.3653 12.4336 31.3008C12.3987 31.237 12.3638 31.1732 12.3278 31.1075C12.2175 30.9055 12.1087 30.7028 12 30.5C11.8941 30.3043 11.7878 30.1088 11.6814 29.9134C11.6161 29.7931 11.5511 29.6727 11.4864 29.5521C11.4572 29.4977 11.4279 29.4434 11.3977 29.3874C11.3721 29.3396 11.3465 29.2918 11.3202 29.2426C11.2511 29.1158 11.2511 29.1158 11.125 29C10.7058 28.963 10.3553 29.0594 9.95607 29.1799C9.89355 29.1981 9.83104 29.2163 9.76663 29.235C9.56819 29.2928 9.37002 29.3514 9.17189 29.4102C8.91004 29.4878 8.64798 29.5646 8.38575 29.6409C8.29571 29.668 8.29571 29.668 8.20385 29.6957C8.14792 29.712 8.092 29.7282 8.03437 29.745C7.96086 29.7669 7.96086 29.7669 7.88586 29.7892C7.7329 29.8154 7.64289 29.8107 7.50001 29.75C7.42234 29.517 7.46158 29.4641 7.55592 29.2422C7.58413 29.1749 7.61234 29.1077 7.6414 29.0384C7.68936 28.9266 7.68936 28.9266 7.73829 28.8125C7.77212 28.7324 7.80588 28.6523 7.83958 28.5722C7.91429 28.3948 7.98932 28.2175 8.06456 28.0403C8.19358 27.7361 8.32115 27.4314 8.4485 27.1265C8.49424 27.017 8.53998 26.9075 8.58572 26.798C8.62038 26.715 8.62038 26.715 8.65573 26.6304C8.77585 26.3431 8.89623 26.0558 9.01661 25.7685C9.04092 25.7105 9.06523 25.6525 9.09027 25.5928C9.18908 25.357 9.2879 25.1212 9.38672 24.8854C9.55734 24.4783 9.72792 24.0712 9.89845 23.6641C9.92185 23.6082 9.94525 23.5523 9.96936 23.4948C10.3782 22.5185 10.7842 21.5411 11.1875 20.5625Z" fill="#FE4A4A"/>
<path id="Vector_4" d="M20.4819 20.5603C20.5322 20.5606 20.5826 20.5609 20.6344 20.5613C20.6725 20.5617 20.7107 20.5621 20.75 20.5625C21.3184 21.8809 21.8789 23.2024 22.4292 24.5285C22.6816 25.1365 22.9349 25.7441 23.1882 26.3518C23.2666 26.5398 23.3449 26.7278 23.4233 26.9158C23.4482 26.9756 23.4731 27.0353 23.4988 27.0969C23.5483 27.2159 23.5978 27.3348 23.6472 27.4538C23.7807 27.775 23.9155 28.0956 24.0519 28.4156C24.0809 28.4841 24.1098 28.5525 24.1397 28.6231C24.1956 28.7551 24.2519 28.8869 24.3086 29.0186C24.3337 29.078 24.3587 29.1374 24.3846 29.1985C24.4181 29.277 24.4181 29.277 24.4522 29.357C24.5 29.5 24.5 29.5 24.5 29.75C24.2862 29.8228 24.1553 29.8013 23.9407 29.7373C23.8794 29.7194 23.818 29.7014 23.7549 29.683C23.689 29.6631 23.6231 29.6433 23.5552 29.6228C23.4153 29.5821 23.2754 29.5415 23.1355 29.5008C22.9151 29.4361 22.6949 29.3709 22.4747 29.3053C22.2622 29.2423 22.0494 29.1805 21.8364 29.1189C21.7708 29.0989 21.7052 29.0789 21.6375 29.0583C21.3731 28.9824 21.1796 28.9295 20.9051 28.9699C20.7186 29.0813 20.6561 29.1705 20.5576 29.3633C20.5254 29.4248 20.4931 29.4864 20.4598 29.5498C20.4101 29.6489 20.4101 29.6489 20.3594 29.75C20.2883 29.8865 20.2172 30.023 20.146 30.1594C20.111 30.2274 20.076 30.2954 20.04 30.3654C19.8939 30.6463 19.7407 30.923 19.5859 31.1992C19.5609 31.2444 19.5358 31.2895 19.51 31.3361C19.4645 31.4178 19.4186 31.4992 19.3723 31.5804C19.3186 31.6766 19.2696 31.7753 19.2212 31.8743C19.1895 31.9158 19.1577 31.9572 19.125 32C18.9627 32.0079 18.9627 32.0079 18.8125 32C18.4114 31.1019 18.0231 30.1997 17.649 29.29C17.6329 29.2508 17.6167 29.2116 17.6001 29.1711C17.5834 29.1306 17.5668 29.09 17.5496 29.0482C17.3017 28.4459 17.0507 27.8449 16.8002 27.2437C16.716 27.0419 16.632 26.84 16.5479 26.6382C16.4954 26.5122 16.4429 26.3862 16.3904 26.2602C16.3664 26.2026 16.3424 26.145 16.3177 26.0857C16.2951 26.0314 16.2724 25.9772 16.2491 25.9213C16.2281 25.8704 16.2071 25.8195 16.1854 25.767C16.147 25.6766 16.1067 25.587 16.0642 25.4985C15.9857 25.3338 15.9334 25.2207 15.9562 25.037C15.9757 24.9925 15.9953 24.948 16.0154 24.9021C16.0366 24.8515 16.0579 24.801 16.0798 24.7489C16.1037 24.6964 16.1277 24.6439 16.1524 24.5898C16.1759 24.5351 16.1994 24.4804 16.2237 24.4241C16.2714 24.3135 16.3198 24.2032 16.3688 24.0932C16.4303 23.9538 16.489 23.8137 16.5462 23.6724C16.7261 23.2324 16.8848 22.8583 17.2852 22.5781C17.6894 22.285 18.0737 21.9664 18.4505 21.6389C19.7017 20.5539 19.7017 20.5539 20.4819 20.5603Z" fill="#FE4949"/>
<path id="Vector_5" d="M17.6875 4.56249C17.7468 4.57808 17.7468 4.57808 17.8073 4.59398C19.59 5.06761 21.1852 6.20972 22.125 7.81249C22.4154 8.32011 22.6484 8.84058 22.8359 9.39452C22.8509 9.43852 22.8658 9.48253 22.8811 9.52786C23.3165 10.8851 23.2483 12.4039 22.8125 13.75C22.7878 13.8267 22.763 13.9034 22.7375 13.9824C22.0689 15.8484 20.6938 17.2313 18.9426 18.0893C17.9939 18.5107 17.0287 18.6989 15.9961 18.7031C15.9181 18.7044 15.8402 18.7057 15.7599 18.707C15.2318 18.7092 14.7586 18.642 14.25 18.5C14.3125 18.375 14.3125 18.375 14.4863 18.3142C14.6014 18.2805 14.6014 18.2805 14.7188 18.2461C16.4014 17.7143 17.8148 16.5039 18.64 14.9485C19.2466 13.7546 19.4604 12.6591 19.4566 11.3302C19.4564 11.1807 19.4582 11.0313 19.4602 10.8818C19.4596 10.8365 19.4589 10.7912 19.4583 10.7445C19.4652 10.3847 19.5737 10.2485 19.8125 9.99999C19.949 9.74651 19.9714 9.53577 19.9375 9.24999C19.8217 8.98004 19.6897 8.79362 19.4453 8.62889C19.2499 8.55014 19.2499 8.55014 19.0312 8.56639C18.8125 8.49999 18.8125 8.49999 18.7212 8.35594C18.6597 8.22508 18.5995 8.0936 18.5403 7.96166C17.8238 6.48609 16.2986 5.36602 14.7812 4.83983C14.6254 4.78744 14.4693 4.73697 14.3125 4.68749C14.3125 4.64624 14.3125 4.60499 14.3125 4.56249C15.4064 4.26796 16.5949 4.25974 17.6875 4.56249Z" fill="#FF5F06"/>
<path id="Vector_6" d="M19.25 8.5C19.5306 8.61203 19.7421 8.76829 19.9062 9.02343C20.022 9.30318 20.0648 9.50982 19.9585 9.80119C19.7901 10.1564 19.5648 10.4083 19.2868 10.6831C19.2405 10.7298 19.1942 10.7765 19.1466 10.8246C18.9944 10.9779 18.8414 11.1302 18.6882 11.2825C18.5817 11.3892 18.4752 11.4959 18.3688 11.6027C18.1459 11.8259 17.9227 12.0486 17.6991 12.271C17.4128 12.5559 17.1277 12.8418 16.8429 13.1281C16.6234 13.3485 16.4032 13.5684 16.1829 13.788C16.0775 13.8932 15.9724 13.9986 15.8674 14.1042C15.7205 14.2517 15.5729 14.3984 15.425 14.5449C15.3819 14.5884 15.3389 14.632 15.2946 14.6768C14.9845 14.9815 14.7248 15.1548 14.2852 15.2187C13.7646 15.1457 13.3976 14.738 13.0417 14.3791C12.9943 14.3319 12.9469 14.2847 12.8981 14.236C12.7987 14.1367 12.6995 14.0372 12.6005 13.9374C12.4492 13.7852 12.297 13.6339 12.1447 13.4828C12.0478 13.3858 11.951 13.2888 11.8542 13.1916C11.8089 13.1467 11.7636 13.1018 11.7169 13.0555C11.41 12.7443 11.1609 12.4586 11.1602 12C11.1704 11.7043 11.235 11.5363 11.4375 11.3125C11.7176 11.0529 11.9545 11.0335 12.3201 11.0293C12.8831 11.1332 13.2393 11.5923 13.6211 11.9844C13.6823 12.0465 13.7435 12.1086 13.8048 12.1706C13.9536 12.3217 14.102 12.4731 14.25 12.625C14.5065 12.5237 14.6766 12.3388 14.8657 12.1455C14.9195 12.0912 14.9195 12.0912 14.9745 12.0359C15.0523 11.9574 15.13 11.8787 15.2075 11.7999C15.3305 11.6751 15.4539 11.5507 15.5774 11.4264C15.9284 11.0729 16.2786 10.7186 16.6286 10.3642C16.8428 10.1472 17.0575 9.93074 17.2725 9.71453C17.3542 9.63223 17.4356 9.54976 17.5169 9.46709C17.6309 9.35117 17.7454 9.23585 17.8601 9.12063C17.9097 9.06968 17.9097 9.06968 17.9604 9.01769C18.329 8.64997 18.713 8.39482 19.25 8.5Z" fill="#FFFDFB"/>
<path id="Vector_7" d="M20.75 20.5625C20.7115 20.8821 20.613 21.1469 20.4886 21.4402C20.4579 21.5137 20.4579 21.5137 20.4267 21.5887C20.3591 21.7507 20.2909 21.9125 20.2227 22.0742C20.1747 22.1888 20.1268 22.3034 20.0789 22.4181C19.9786 22.658 19.878 22.8979 19.7772 23.1377C19.6308 23.4861 19.485 23.8348 19.3394 24.1836C18.7292 25.6445 18.1151 27.1037 17.5 28.5625C17.3125 28.5 17.3125 28.5 17.2462 28.3863C17.226 28.3367 17.2059 28.2871 17.1852 28.2359C17.1621 28.1798 17.1389 28.1237 17.115 28.0658C17.0906 28.0046 17.0662 27.9434 17.041 27.8804C17.0154 27.8177 16.9897 27.755 16.9633 27.6904C16.8812 27.4892 16.8 27.2876 16.7188 27.0859C16.6641 26.9514 16.6093 26.8169 16.5545 26.6824C16.4312 26.3799 16.3083 26.0774 16.1869 25.7742C16.1317 25.6412 16.0714 25.5122 16.0094 25.3823C15.9308 25.1693 15.9261 25.1054 16.0154 24.9021C16.0367 24.8516 16.0579 24.801 16.0798 24.7489C16.1037 24.6964 16.1277 24.6439 16.1524 24.5899C16.1759 24.5351 16.1995 24.4804 16.2237 24.4241C16.2714 24.3135 16.3198 24.2032 16.3688 24.0932C16.4303 23.9538 16.489 23.8137 16.5462 23.6724C16.7262 23.2324 16.8849 22.8583 17.2852 22.5781C17.6894 22.285 18.0737 21.9665 18.4505 21.6389C19.1554 21.0276 19.7745 20.5227 20.75 20.5625Z" fill="#EF3535"/>
</g>
<defs>
<clipPath id="clip0_619_449">
<rect width="32" height="32" fill="white"/>
</clipPath>
</defs>
</svg>
