<svg width="32" height="32" viewBox="0 0 32 32" fill="none" xmlns="http://www.w3.org/2000/svg">
<g id="Simplification" clip-path="url(#clip0_619_93)">
<path id="Vector" d="M18.1875 0.250014C18.237 0.265433 18.2864 0.280851 18.3374 0.296737C19.3686 0.62794 20.2271 1.12679 21.0625 1.81251C21.114 1.85433 21.1655 1.89614 21.2185 1.93922C21.5904 2.25438 21.8917 2.61367 22.1875 3.00001C22.2433 3.07204 22.2433 3.07204 22.3003 3.14552C23.5153 4.79168 24.0024 6.91779 23.6988 8.93812C23.6611 9.14839 23.615 9.35548 23.5625 9.56251C23.5524 9.60293 23.5424 9.64334 23.532 9.68498C22.9985 11.7488 21.6919 13.3956 19.8746 14.483C18.9667 15.005 17.8643 15.4433 16.8031 15.4386C16.7237 15.4382 16.6443 15.4379 16.5625 15.4375C16.5626 15.4718 16.5627 15.506 16.5629 15.5414C16.5699 17.5716 16.5752 19.6018 16.5785 21.632C16.5788 21.8757 16.5793 22.1194 16.5797 22.3631C16.5798 22.4359 16.5798 22.4359 16.5799 22.5101C16.5813 23.296 16.5837 24.0819 16.5866 24.8677C16.5895 25.6739 16.5913 26.4801 16.5919 27.2863C16.5923 27.7839 16.5937 28.2815 16.5962 28.7791C16.5981 29.1604 16.5983 29.5418 16.5978 29.9231C16.5979 30.0797 16.5986 30.2363 16.5998 30.3929C16.6013 30.6063 16.6009 30.8196 16.6001 31.033C16.6014 31.1265 16.6014 31.1265 16.6028 31.2219C16.5997 31.5147 16.596 31.6442 16.412 31.8821C16.2558 31.9958 16.1894 32.0429 16 32.0391C15.96 32.0399 15.9201 32.0407 15.8789 32.0415C15.663 31.972 15.5761 31.8667 15.4375 31.6875C15.3914 31.4695 15.3967 31.2551 15.3999 31.033C15.3997 30.9664 15.3994 30.8998 15.3991 30.8311C15.3986 30.6075 15.4003 30.384 15.402 30.1603C15.4021 30.0002 15.4021 29.8401 15.4019 29.6799C15.4018 29.3349 15.4027 28.99 15.4045 28.645C15.407 28.1463 15.4078 27.6476 15.4082 27.1488C15.4089 26.3396 15.411 25.5304 15.4139 24.7212C15.4168 23.9352 15.419 23.1491 15.4203 22.3631C15.4204 22.3146 15.4205 22.2662 15.4206 22.2163C15.421 21.9732 15.4214 21.7301 15.4218 21.487C15.425 19.4705 15.4305 17.454 15.4375 15.4375C15.2495 15.4383 15.2495 15.4383 15.0615 15.4392C13.5938 15.4195 11.9978 14.5818 10.9375 13.625C10.8852 13.5809 10.8329 13.5367 10.7791 13.4912C9.51556 12.4054 8.74183 10.9183 8.375 9.31251C8.35192 9.21523 8.35192 9.21523 8.32837 9.11598C8.12567 8.07173 8.17534 6.90481 8.4375 5.87501C8.45309 5.8134 8.45309 5.8134 8.46899 5.75053C8.73266 4.74836 9.17302 3.81689 9.8125 3.00001C9.85456 2.94625 9.85456 2.94625 9.89746 2.8914C10.9542 1.5614 12.3592 0.649773 14 0.187514C14.0697 0.167453 14.1394 0.147392 14.2112 0.126723C15.4494 -0.165496 16.9745 -0.132031 18.1875 0.250014Z" fill="#DD342E"/>
<path id="Vector_2" d="M15.4375 15.4375C15.8088 15.4375 16.18 15.4375 16.5625 15.4375C16.5696 17.5023 16.5752 19.5672 16.5785 21.632C16.5789 21.8757 16.5793 22.1194 16.5797 22.3631C16.5797 22.4116 16.5798 22.4601 16.5799 22.5101C16.5813 23.296 16.5837 24.0819 16.5866 24.8677C16.5895 25.6739 16.5913 26.4801 16.5919 27.2863C16.5923 27.7839 16.5937 28.2815 16.5962 28.7791C16.5981 29.1604 16.5983 29.5418 16.5978 29.9231C16.5979 30.0797 16.5986 30.2363 16.5998 30.3929C16.6013 30.6063 16.6009 30.8196 16.6001 31.033C16.601 31.0953 16.6019 31.1576 16.6028 31.2218C16.5997 31.5147 16.596 31.6442 16.412 31.8821C16.2558 31.9958 16.1894 32.0429 16 32.0391C15.96 32.0399 15.9201 32.0407 15.8789 32.0415C15.663 31.972 15.5761 31.8667 15.4375 31.6875C15.3914 31.4695 15.3967 31.2551 15.3999 31.033C15.3997 30.9664 15.3994 30.8998 15.3991 30.8311C15.3986 30.6075 15.4003 30.3839 15.402 30.1603C15.4021 30.0002 15.4021 29.84 15.4019 29.6799C15.4018 29.3349 15.4027 28.99 15.4045 28.645C15.407 28.1463 15.4078 27.6475 15.4082 27.1488C15.4089 26.3396 15.411 25.5304 15.4139 24.7212C15.4168 23.9351 15.419 23.1491 15.4203 22.3631C15.4204 22.3146 15.4205 22.2662 15.4206 22.2162C15.421 21.9732 15.4214 21.7301 15.4218 21.487C15.425 19.4705 15.4305 17.454 15.4375 15.4375Z" fill="#555F7F"/>
<path id="Vector_3" d="M13.9541 4.00636C14.4101 4.24255 14.7108 4.56999 14.875 5.06251C14.919 5.57717 14.9084 6.05472 14.625 6.50001C14.2941 6.88092 13.931 7.14137 13.426 7.2046C12.9427 7.22638 12.5397 7.10413 12.168 6.79298C11.7497 6.39808 11.6171 6.06663 11.5977 5.4922C11.5941 5.03544 11.6957 4.71922 12 4.37501C12.5484 3.86292 13.248 3.68833 13.9541 4.00636Z" fill="#F66262"/>
</g>
<defs>
<clipPath id="clip0_619_93">
<rect width="32" height="32" fill="white"/>
</clipPath>
</defs>
</svg>
