<svg width="32" height="32" viewBox="0 0 32 32" fill="none" xmlns="http://www.w3.org/2000/svg">
<g id="Simplification">
<path id="Vector" d="M9.36724 21.6211C9.4668 21.6483 9.56638 21.6754 9.66599 21.7024C9.89346 21.7644 10.1207 21.8269 10.348 21.8897C10.7269 21.9941 11.1066 22.0958 11.4863 22.1972C11.793 22.2791 12.0995 22.3616 12.4059 22.4444C12.6245 22.5033 12.8431 22.5621 13.0619 22.6204C13.3101 22.6866 13.558 22.754 13.806 22.8215C13.8803 22.8412 13.9546 22.8608 14.0312 22.8811C14.701 23.0654 15.2163 23.2985 15.625 23.875C15.8571 24.285 15.875 24.7248 15.875 25.1875C16.7328 24.6983 17.5902 24.2085 18.4454 23.7149C18.5114 23.6767 18.5775 23.6386 18.6455 23.5993C18.9883 23.4014 19.3309 23.2032 19.6734 23.0049C20.2895 22.6484 20.9058 22.2922 21.5274 21.9453C21.5732 21.9196 21.6191 21.894 21.6663 21.8675C22.144 21.6027 22.6302 21.521 23.1675 21.6721C23.6622 21.8845 23.9699 22.1742 24.2032 22.6641C24.3268 23.2206 24.2966 23.756 24 24.25C23.6474 24.6314 23.2311 24.8891 22.7774 25.1328C22.6492 25.2034 22.5212 25.2742 22.3931 25.345C22.3279 25.3809 22.2626 25.4168 22.1954 25.4538C21.884 25.6271 21.5768 25.8077 21.2696 25.9883C20.7235 26.3084 20.175 26.6242 19.625 26.9375C19.0817 27.2471 18.5397 27.559 18 27.875C17.2342 28.3233 16.4641 28.7639 15.6928 29.2026C15.5231 29.2994 15.3538 29.3966 15.1846 29.4942C15.0971 29.5443 15.0095 29.5944 14.9219 29.6445C14.8507 29.6855 14.7795 29.7266 14.7061 29.7688C13.9309 30.1683 13.1956 30.1849 12.3555 30.0078C12.291 29.9948 12.2265 29.9817 12.1601 29.9682C11.691 29.8712 11.2249 29.7631 10.7588 29.6526C10.6373 29.624 10.5157 29.5955 10.3942 29.567C10.1538 29.5106 9.91393 29.4527 9.67417 29.394C8.46251 29.1041 7.51184 29.0867 6.39751 29.7212C6.23288 29.8231 6.08179 29.9332 5.93755 30.0625C5.95946 30.1373 5.98138 30.212 6.00395 30.2891C6.0617 30.5255 6.08216 30.7021 6.00005 30.9375C5.73186 31.141 5.42597 31.2104 5.10552 31.293C5.02896 31.3141 5.02896 31.3141 4.95085 31.3356C4.6258 31.4208 4.33595 31.4745 4.00005 31.4375C3.77929 31.2273 3.73003 30.9405 3.65576 30.6553C3.6413 30.6016 3.62684 30.5479 3.61193 30.4925C3.56409 30.3143 3.51706 30.1359 3.47002 29.9575C3.4365 29.832 3.40294 29.7066 3.36932 29.5811C3.28055 29.2493 3.19246 28.9172 3.1045 28.5852C3.01682 28.2546 2.92852 27.9242 2.84026 27.5938C2.73758 27.2092 2.63503 26.8247 2.53309 26.4399C2.3867 25.8875 2.23981 25.3352 2.08852 24.7841C2.05323 24.6548 2.01797 24.5255 1.98273 24.3962C1.95123 24.2814 1.91916 24.1667 1.88705 24.052C1.70209 23.3728 1.70209 23.3728 1.75005 23.0625C1.90902 22.8895 2.08897 22.8356 2.31206 22.7747C2.40137 22.7502 2.40137 22.7502 2.49248 22.7252C2.58517 22.7008 2.58517 22.7008 2.67974 22.6758C2.74105 22.6588 2.80236 22.6417 2.86553 22.6242C3.47536 22.46 3.47536 22.46 3.75005 22.5C3.97025 22.6371 4.00572 22.8667 4.07427 23.1055C4.09578 23.1792 4.11729 23.2529 4.13945 23.3289C4.15532 23.3853 4.1712 23.4418 4.18755 23.5C4.29047 23.4233 4.39332 23.3464 4.49614 23.2695C4.52917 23.2449 4.56221 23.2202 4.59624 23.1947C4.79787 23.0436 4.99826 22.891 5.19756 22.7368C6.60709 21.6468 7.56897 21.1178 9.36724 21.6211Z" fill="#FED5BC"/>
<path id="Vector_2" d="M18.0626 8.74999C18.1024 8.76306 18.1423 8.77612 18.1834 8.78958C19.0828 9.09211 19.8205 9.59069 20.5001 10.25C20.5428 10.2882 20.5856 10.3264 20.6297 10.3657C21.6094 11.2704 22.2441 12.7682 22.3213 14.0875C22.3865 15.8546 21.9643 17.4199 20.7852 18.7695C19.6709 19.9454 18.2035 20.7783 16.553 20.8252C14.8413 20.8485 13.2625 20.4554 12 19.2461C11.9164 19.1643 11.8332 19.0822 11.7501 19C11.6899 18.9466 11.6899 18.9466 11.6285 18.8921C10.6838 18.0352 10.0661 16.5722 9.98899 15.3204C9.94744 13.2961 10.3856 11.6806 11.8126 10.1875C12.5539 9.46777 13.449 8.97893 14.4376 8.68749C14.5002 8.66759 14.5628 8.64769 14.6272 8.62719C15.7194 8.3335 16.9932 8.39503 18.0626 8.74999Z" fill="#465759"/>
<path id="Vector_3" d="M23.9375 22.4375C24.125 22.5 24.125 22.5 24.1993 22.6445C24.3236 23.209 24.3016 23.7477 24 24.25C23.6474 24.6314 23.2311 24.8891 22.7774 25.1328C22.6492 25.2034 22.5212 25.2742 22.3931 25.345C22.3279 25.3809 22.2626 25.4168 22.1954 25.4538C21.884 25.6271 21.5768 25.8077 21.2696 25.9883C20.7235 26.3083 20.175 26.6242 19.625 26.9375C19.0817 27.2471 18.5397 27.559 18 27.875C17.2342 28.3233 16.4641 28.7639 15.6928 29.2026C15.5231 29.2993 15.3538 29.3966 15.1846 29.4941C15.0971 29.5443 15.0095 29.5944 14.9219 29.6445C14.8507 29.6855 14.7795 29.7265 14.7061 29.7688C13.9309 30.1683 13.1956 30.1849 12.3555 30.0078C12.291 29.9947 12.2265 29.9817 12.1601 29.9682C11.691 29.8712 11.2249 29.7631 10.7588 29.6526C10.6373 29.624 10.5157 29.5955 10.3942 29.567C10.1538 29.5106 9.91393 29.4527 9.67417 29.394C8.46251 29.1041 7.51184 29.0867 6.39751 29.7212C6.23288 29.8231 6.08179 29.9332 5.93755 30.0625C5.95946 30.1373 5.98138 30.212 6.00395 30.2891C6.0617 30.5255 6.08216 30.7021 6.00005 30.9375C5.73186 31.141 5.42597 31.2104 5.10552 31.293C5.02896 31.3141 5.02896 31.3141 4.95085 31.3356C4.6258 31.4208 4.33595 31.4745 4.00005 31.4375C3.77929 31.2273 3.73003 30.9405 3.65576 30.6553C3.6413 30.6016 3.62684 30.5479 3.61193 30.4925C3.56409 30.3143 3.51706 30.1359 3.47002 29.9575C3.4365 29.832 3.40293 29.7066 3.36932 29.5811C3.28055 29.2493 3.19246 28.9172 3.1045 28.5852C3.01682 28.2546 2.92852 27.9242 2.84026 27.5938C2.73758 27.2092 2.63503 26.8246 2.53309 26.4399C2.3867 25.8875 2.23981 25.3352 2.08852 24.7841C2.05323 24.6548 2.01797 24.5255 1.98273 24.3962C1.95123 24.2814 1.91916 24.1667 1.88705 24.052C1.70209 23.3727 1.70209 23.3727 1.75005 23.0625C1.90902 22.8895 2.08897 22.8356 2.31206 22.7747C2.3716 22.7583 2.43114 22.742 2.49248 22.7252C2.55427 22.7089 2.61607 22.6926 2.67974 22.6758C2.74105 22.6587 2.80236 22.6417 2.86553 22.6241C3.47536 22.46 3.47536 22.46 3.75005 22.5C3.93196 22.6239 3.97762 22.7693 4.0352 22.9766C4.05659 23.0512 4.05659 23.0512 4.07842 23.1274C4.11494 23.2724 4.14852 23.417 4.18047 23.563C4.39514 24.5402 4.64827 25.5102 4.92902 26.4704C5.0677 26.9472 5.18795 27.4279 5.3062 27.9102C5.37592 28.1939 5.45232 28.4754 5.53252 28.7563C5.56255 28.875 5.56255 28.875 5.56255 29C5.62466 28.9641 5.68678 28.9281 5.75078 28.8911C7.01003 28.1727 7.01003 28.1727 7.62505 28.125C7.67178 28.1207 7.71851 28.1165 7.76665 28.1121C8.56795 28.0762 9.39123 28.3427 10.1641 28.5234C10.2047 28.5329 10.2454 28.5424 10.2872 28.5522C10.6977 28.6481 11.1078 28.7452 11.5166 28.8479C13.492 29.3369 14.7176 28.6085 16.3973 27.6091C16.7538 27.3974 17.1134 27.1912 17.4727 26.9844C18.0036 26.6787 18.5337 26.3716 19.0625 26.0625C19.5799 25.7602 20.0982 25.4595 20.6172 25.1602C20.6839 25.1217 20.7506 25.0831 20.8194 25.0435C21.1364 24.8606 21.4536 24.6781 21.7716 24.497C21.8829 24.4336 21.9941 24.3701 22.1053 24.3065C22.2445 24.2269 22.3839 24.1476 22.5235 24.0686C23.2513 23.6845 23.2513 23.6845 23.7461 23.0586C23.7699 23.0076 23.7937 22.9566 23.8182 22.9041C23.8754 22.7491 23.91 22.6002 23.9375 22.4375Z" fill="#F9C6AA"/>
<path id="Vector_4" d="M18.801 17.7468C18.9565 17.8676 19.104 17.993 19.25 18.125C19.2942 18.1641 19.3385 18.2033 19.384 18.2436C19.7199 18.5583 19.9549 18.9171 20.1875 19.3125C19.2992 20.2512 17.8247 20.789 16.553 20.8252C14.8917 20.8478 13.4025 20.4797 12.125 19.375C12.4413 18.4756 13.3656 17.7623 14.1841 17.3432C15.7152 16.6614 17.4179 16.7896 18.801 17.7468Z" fill="#63B4F5"/>
<path id="Vector_5" d="M3.75005 22.5C3.93196 22.6239 3.97762 22.7693 4.0352 22.9766C4.0566 23.0513 4.0566 23.0513 4.07842 23.1274C4.11494 23.2724 4.14852 23.417 4.18047 23.563C4.39524 24.5407 4.6485 25.5111 4.92943 26.4717C5.03463 26.8334 5.12944 27.1966 5.2188 27.5625C5.32492 27.9961 5.43943 28.4264 5.56255 28.8555C5.58588 28.937 5.58588 28.937 5.60968 29.0202C5.68548 29.2829 5.76349 29.5448 5.84551 29.8057C5.86037 29.8537 5.87524 29.9018 5.89055 29.9513C5.91832 30.0406 5.94676 30.1297 5.976 30.2186C6.05679 30.4795 6.09058 30.6764 6.00005 30.9375C5.7512 31.152 5.4177 31.2126 5.10552 31.293C5.02896 31.3141 5.02896 31.3141 4.95085 31.3356C4.6258 31.4208 4.33595 31.4745 4.00005 31.4375C3.77929 31.2273 3.73003 30.9405 3.65576 30.6553C3.6413 30.6016 3.62684 30.5479 3.61193 30.4925C3.56409 30.3143 3.51706 30.1359 3.47002 29.9575C3.4365 29.832 3.40294 29.7066 3.36932 29.5811C3.28055 29.2493 3.19246 28.9172 3.1045 28.5852C3.01682 28.2546 2.92852 27.9242 2.84026 27.5938C2.73758 27.2092 2.63503 26.8246 2.53309 26.4399C2.3867 25.8875 2.23981 25.3352 2.08852 24.7841C2.05323 24.6548 2.01797 24.5255 1.98273 24.3962C1.95123 24.2814 1.91916 24.1667 1.88705 24.052C1.70209 23.3727 1.70209 23.3727 1.75005 23.0625C1.90902 22.8895 2.08897 22.8356 2.31206 22.7747C2.3716 22.7583 2.43114 22.742 2.49248 22.7252C2.55427 22.7089 2.61607 22.6926 2.67974 22.6758C2.74105 22.6587 2.80236 22.6417 2.86553 22.6241C3.47536 22.46 3.47536 22.46 3.75005 22.5Z" fill="#64B5F5"/>
<path id="Vector_6" d="M17.5547 12.1719C18.1011 12.5732 18.4994 13.136 18.625 13.8125C18.6879 14.6218 18.5337 15.3109 18 15.9375C17.4515 16.4792 16.892 16.7088 16.1289 16.7227C15.4033 16.7148 14.856 16.486 14.3291 15.9795C13.7726 15.3231 13.6275 14.6523 13.6742 13.8134C13.7393 13.1987 14.1152 12.7127 14.5625 12.3125C15.4726 11.6171 16.5798 11.563 17.5547 12.1719Z" fill="#FED5BC"/>
<path id="Vector_7" d="M27.9375 11.5625C27.9787 11.5831 28.02 11.6037 28.0625 11.625C28.0871 11.7834 28.1038 11.9364 28.1157 12.0959C28.1217 12.1666 28.1217 12.1666 28.1278 12.2386C28.1404 12.3895 28.1523 12.5404 28.1641 12.6914C28.1725 12.7935 28.1809 12.8956 28.1895 12.9977C28.2104 13.2484 28.2301 13.4992 28.25 13.75C28.8894 14.0181 29.5287 14.2863 30.1875 14.5625C30.1875 14.6244 30.1875 14.6862 30.1875 14.75C29.5481 15.0181 28.9088 15.2863 28.25 15.5625C28.1881 16.2638 28.1263 16.965 28.0625 17.6875C27.875 17.6875 27.875 17.6875 27.7534 17.575C27.7085 17.5231 27.6635 17.4713 27.6172 17.418C27.5679 17.3614 27.5186 17.3049 27.4678 17.2466C27.266 17.0074 27.0675 16.7657 26.8716 16.5217C26.8315 16.4733 26.7913 16.4249 26.75 16.375C26.7224 16.3408 26.6947 16.3067 26.6663 16.2715C26.5676 16.1754 26.5676 16.1754 26.4314 16.1772C26.0326 16.2296 25.6473 16.3105 25.2578 16.4102C25.1435 16.4391 25.029 16.4679 24.9146 16.4963C24.8649 16.509 24.8152 16.5217 24.7639 16.5348C24.625 16.5625 24.625 16.5625 24.375 16.5625C24.4663 16.2347 24.6173 15.9811 24.8008 15.6992C25.0272 15.3481 25.2383 14.9923 25.4375 14.625C25.405 14.573 25.3725 14.5209 25.339 14.4673C25.2187 14.2745 25.0993 14.0811 24.9801 13.8876C24.9284 13.8039 24.8764 13.7203 24.8242 13.6368C24.7493 13.517 24.6752 13.3966 24.6013 13.2761C24.566 13.2202 24.566 13.2202 24.5299 13.1631C24.4733 13.0699 24.4235 12.9726 24.375 12.875C24.3956 12.8131 24.4162 12.7513 24.4375 12.6875C24.4927 12.7011 24.5478 12.7147 24.6047 12.7287C24.8101 12.7789 25.0157 12.8286 25.2214 12.8779C25.3103 12.8993 25.3991 12.9209 25.4878 12.9428C25.6157 12.9743 25.7437 13.0049 25.8718 13.0354C25.9487 13.0541 26.0257 13.0727 26.1049 13.0919C26.3071 13.1241 26.4317 13.1249 26.625 13.0625C26.7648 12.9441 26.7648 12.9441 26.8906 12.7891C26.9388 12.7331 26.987 12.6771 27.0366 12.6194C27.2354 12.3797 27.4335 12.1395 27.6284 11.8967C27.7268 11.778 27.826 11.6687 27.9375 11.5625Z" fill="#FFD92C"/>
<path id="Vector_8" d="M10 4.0625C9.98359 4.32268 9.96692 4.58284 9.95003 4.84299C9.94432 4.93136 9.93869 5.01974 9.93312 5.10812C9.92508 5.23567 9.91678 5.3632 9.90845 5.49072C9.90354 5.56731 9.89863 5.6439 9.89357 5.72281C9.87633 5.92218 9.84845 6.11574 9.8125 6.3125C9.85667 6.32878 9.90083 6.34506 9.94633 6.36183C10.2826 6.50426 10.585 6.71001 10.8945 6.90234C10.9647 6.94492 11.0348 6.9875 11.1071 7.03137C11.2065 7.09307 11.2065 7.09307 11.3079 7.15601C11.3687 7.1935 11.4296 7.231 11.4923 7.26964C11.5361 7.30441 11.5799 7.33918 11.625 7.375C11.625 7.43688 11.625 7.49875 11.625 7.5625C11.5654 7.5747 11.5058 7.5869 11.4444 7.59947C11.2226 7.64556 11.0017 7.69489 10.7808 7.74522C10.6853 7.76652 10.5895 7.78694 10.4936 7.80644C9.95918 7.89378 9.95918 7.89378 9.52693 8.17824C9.47489 8.32862 9.45548 8.46692 9.4375 8.625C9.40536 8.75302 9.37183 8.8807 9.33716 9.00806C9.30397 9.14203 9.27102 9.27607 9.23828 9.41016C9.22124 9.47916 9.2042 9.54817 9.18665 9.61926C9.14506 9.78779 9.10368 9.95637 9.0625 10.125C9.00062 10.125 8.93875 10.125 8.875 10.125C8.7831 10.0105 8.7831 10.0105 8.68774 9.85107C8.65282 9.79355 8.61789 9.73603 8.58191 9.67676C8.54586 9.61585 8.5098 9.55494 8.47266 9.49219C8.40117 9.3735 8.32964 9.25485 8.25806 9.13623C8.22447 9.08006 8.19088 9.02388 8.15628 8.966C8.07806 8.83796 7.99706 8.71376 7.91187 8.59033C7.8125 8.4375 7.8125 8.4375 7.8125 8.3125C7.77031 8.32212 7.72812 8.33175 7.68465 8.34166C7.4712 8.3802 7.26216 8.39508 7.04565 8.40845C6.98181 8.41248 6.98181 8.41248 6.91668 8.41659C6.7817 8.42506 6.64671 8.43324 6.51172 8.44141C6.4198 8.44712 6.32788 8.45286 6.23596 8.45862C6.01149 8.47264 5.787 8.48639 5.5625 8.5C5.67599 8.25877 5.82997 8.07108 6.00391 7.87109C6.06564 7.7992 6.12733 7.72725 6.18896 7.65527C6.21996 7.61914 6.25096 7.58301 6.2829 7.54578C6.50546 7.28413 6.72081 7.0165 6.9375 6.75C6.91922 6.7043 6.90094 6.65861 6.88211 6.61153C6.69224 6.13685 6.50237 5.66218 6.3125 5.1875C6.2888 5.13213 6.26511 5.07675 6.24069 5.0197C6.1875 4.875 6.1875 4.875 6.1875 4.6875C6.44211 4.72721 6.6492 4.81058 6.88208 4.91968C6.99374 4.96949 7.1054 5.0193 7.21709 5.06905C7.29374 5.10375 7.37004 5.13924 7.44597 5.17549C7.87649 5.40065 7.87649 5.40065 8.33659 5.38702C8.46937 5.28891 8.57565 5.18374 8.6875 5.0625C8.76317 4.99766 8.83958 4.93366 8.91675 4.87061C8.99021 4.80713 9.06354 4.74349 9.13672 4.67969C9.84796 4.0625 9.84796 4.0625 10 4.0625Z" fill="#FFD92C"/>
<path id="Vector_9" d="M4.25 11.5625C4.42969 11.6427 4.54534 11.7202 4.6709 11.8713C4.70137 11.9076 4.73184 11.9438 4.76323 11.9812C4.79496 12.0196 4.82669 12.0581 4.85938 12.0977C4.89259 12.1367 4.92581 12.1757 4.96004 12.216C5.10818 12.3902 5.25211 12.5653 5.39038 12.7476C5.45044 12.8242 5.45044 12.8242 5.51172 12.9023C5.54483 12.9474 5.57794 12.9924 5.61206 13.0388C5.92228 13.2326 6.38631 13.0487 6.7229 12.9744C6.86873 12.9403 7.01448 12.9058 7.16016 12.8711C7.23512 12.8535 7.31009 12.8359 7.38733 12.8177C7.57079 12.7746 7.75418 12.7312 7.9375 12.6875C7.89786 12.9342 7.77545 13.102 7.63696 13.3069C7.58973 13.3797 7.54265 13.4527 7.49573 13.5258C7.42203 13.6402 7.34774 13.7538 7.27052 13.8659C7.10436 14.1085 6.9611 14.341 6.875 14.625C6.93633 14.9026 7.07857 15.0898 7.25 15.3125C7.31343 15.4148 7.37583 15.5177 7.43701 15.6213C7.52807 15.7679 7.61965 15.9141 7.71143 16.0602C7.75541 16.1311 7.75541 16.1311 7.80029 16.2034C7.83992 16.2665 7.83992 16.2665 7.88034 16.3309C7.9375 16.4375 7.9375 16.4375 7.9375 16.5625C7.47047 16.5164 7.01964 16.4126 6.5625 16.3086C6.48427 16.291 6.40604 16.2734 6.32544 16.2552C6.13358 16.212 5.94177 16.1686 5.75 16.125C5.69483 16.1936 5.69483 16.1936 5.63855 16.2636C5.33666 16.6381 5.02496 16.9967 4.69775 17.3494C4.56234 17.4947 4.56234 17.4947 4.4585 17.6448C4.43094 17.6795 4.40339 17.7142 4.375 17.75C4.33375 17.75 4.2925 17.75 4.25 17.75C4.18812 17.0075 4.12625 16.265 4.0625 15.5C3.75312 15.4072 3.75312 15.4072 3.4375 15.3125C3.32045 15.2679 3.20414 15.2213 3.08936 15.1711C3.00355 15.134 3.00355 15.134 2.91602 15.0961C2.85865 15.0708 2.80129 15.0456 2.74219 15.0195C2.68241 14.9935 2.62263 14.9676 2.56104 14.9408C2.41555 14.8775 2.27021 14.8139 2.125 14.75C2.125 14.6881 2.125 14.6263 2.125 14.5625C2.18147 14.5385 2.23794 14.5146 2.29613 14.4899C2.50515 14.4011 2.71393 14.3117 2.92265 14.2222C3.0131 14.1835 3.10362 14.145 3.1942 14.1066C3.32421 14.0514 3.454 13.9957 3.58374 13.9399C3.62443 13.9228 3.66512 13.9057 3.70705 13.888C3.92552 13.8036 3.92552 13.8036 4.0625 13.625C4.08097 13.4704 4.09644 13.3167 4.10962 13.1616C4.11369 13.116 4.11777 13.0704 4.12196 13.0234C4.13493 12.8776 4.14755 12.7318 4.16016 12.5859C4.16888 12.4871 4.17763 12.3883 4.1864 12.2896C4.20787 12.0472 4.22902 11.8049 4.25 11.5625Z" fill="#FFD92C"/>
<path id="Vector_10" d="M16.0625 0.5625C16.25 0.625 16.25 0.625 16.3401 0.796494C16.3706 0.871304 16.401 0.946115 16.4324 1.02319C16.4488 1.06304 16.4651 1.10288 16.482 1.14394C16.5165 1.22824 16.5507 1.31267 16.5846 1.39723C16.6365 1.52688 16.6894 1.6561 16.7426 1.78528C17 2.41679 17 2.41679 17 2.5625C18.1137 2.65531 18.1137 2.65531 19.25 2.75C19.1217 3.00651 19.037 3.08624 18.8164 3.25781C18.4008 3.58844 18.0008 3.93674 17.625 4.3125C17.6492 4.50437 17.6492 4.50437 17.7085 4.72607C17.7184 4.76692 17.7283 4.80777 17.7385 4.84986C17.7703 4.98081 17.803 5.1115 17.8359 5.24219C17.8682 5.37246 17.9003 5.50278 17.9321 5.63318C17.9611 5.75189 17.9907 5.87044 18.0204 5.98898C18.0625 6.1875 18.0625 6.1875 18.0625 6.4375C17.816 6.34899 17.6161 6.23109 17.3997 6.08423C17.333 6.04092 17.2663 5.99762 17.1976 5.953C17.0581 5.86198 16.9198 5.76919 16.7826 5.67468C16.4284 5.43373 16.4284 5.43373 16.02 5.4032C15.8529 5.48399 15.712 5.57773 15.5625 5.6875C15.458 5.75341 15.3532 5.819 15.2483 5.88428C15.0926 5.9859 14.9377 6.08843 14.7831 6.19165C14.7329 6.22428 14.6828 6.25691 14.6311 6.29053C14.5863 6.32029 14.5415 6.35005 14.4954 6.38071C14.375 6.4375 14.375 6.4375 14.1875 6.375C14.2011 6.31984 14.2147 6.26467 14.2287 6.20784C14.2789 6.00237 14.3286 5.79678 14.3779 5.59108C14.3993 5.50222 14.4209 5.41341 14.4428 5.32466C14.4743 5.19681 14.5049 5.06877 14.5354 4.94067C14.5541 4.86376 14.5727 4.78684 14.5919 4.7076C14.6242 4.50508 14.6258 4.38095 14.5625 4.1875C14.4297 4.03337 14.4297 4.03337 14.2578 3.89062C14.1654 3.80966 14.1654 3.80966 14.071 3.72705C13.8275 3.52059 13.578 3.32148 13.3259 3.12549C13.19 3.00227 13.1376 2.9134 13.0625 2.75C13.124 2.7453 13.1855 2.7406 13.2489 2.73576C13.4771 2.7181 13.7053 2.69931 13.9334 2.68019C14.0321 2.67207 14.1309 2.66426 14.2297 2.65675C14.3717 2.64591 14.5136 2.63398 14.6555 2.62183C14.6997 2.61869 14.7438 2.61556 14.7893 2.61233C14.957 2.59714 15.0932 2.58286 15.2367 2.49097C15.347 2.32224 15.419 2.14694 15.4949 1.96021C15.5113 1.92024 15.5276 1.88028 15.5445 1.8391C15.5965 1.71192 15.6479 1.58448 15.6992 1.45703C15.7345 1.37055 15.7697 1.28408 15.8051 1.19763C15.8914 0.986121 15.9771 0.774377 16.0625 0.5625Z" fill="#FFD92C"/>
<path id="Vector_11" d="M22.3125 4.0625C22.489 4.14389 22.6272 4.23299 22.7722 4.36206C22.8112 4.39634 22.8501 4.43062 22.8903 4.46594C22.9303 4.50167 22.9704 4.5374 23.0117 4.57422C23.1311 4.68028 23.2508 4.78562 23.3728 4.88866C23.5 5 23.5 5 23.6279 5.13393C23.77 5.27046 23.88 5.36197 24.0625 5.4375C24.3543 5.40275 24.5963 5.28674 24.8594 5.16016C24.9634 5.11405 24.9634 5.11405 25.0696 5.06702C25.1986 5.00963 25.3272 4.95108 25.455 4.89101C25.8957 4.6875 25.8957 4.6875 26.125 4.6875C26.0341 5.02296 25.9289 5.34467 25.7896 5.66333C25.7639 5.72194 25.7383 5.78055 25.7119 5.84094C25.6585 5.96157 25.6043 6.08184 25.5493 6.20178C25.3976 6.52145 25.3976 6.52145 25.428 6.85669C25.4724 6.90398 25.5168 6.95127 25.5625 7C25.6236 7.07332 25.6845 7.14674 25.7454 7.22021C25.8157 7.30067 25.8862 7.3809 25.957 7.46094C26.0617 7.58027 26.1663 7.69963 26.2709 7.81903C26.3418 7.89977 26.4131 7.9802 26.4847 8.06036C26.519 8.09926 26.5533 8.13815 26.5886 8.17822C26.6197 8.21308 26.6507 8.24793 26.6827 8.28384C26.75 8.375 26.75 8.375 26.75 8.5C26.0075 8.45875 25.265 8.4175 24.5 8.375C24.2232 8.83114 24.2232 8.83114 23.9466 9.28738C23.84 9.46279 23.7327 9.63778 23.625 9.8125C23.5987 9.85542 23.5724 9.89834 23.5453 9.94257C23.4921 10.0266 23.4342 10.1076 23.375 10.1875C23.3338 10.1875 23.2925 10.1875 23.25 10.1875C23.2352 10.1276 23.2204 10.0676 23.2051 10.0059C23.1501 9.78385 23.095 9.56185 23.0398 9.33987C23.0159 9.24374 22.9921 9.14759 22.9683 9.05142C22.9342 8.91332 22.8999 8.77526 22.8655 8.63721C22.8549 8.5941 22.8442 8.551 22.8333 8.50659C22.7769 8.27874 22.7769 8.27874 22.6875 8.0625C22.5408 8.01734 22.3975 7.97965 22.2483 7.94531C22.2043 7.93469 22.1603 7.92406 22.1149 7.91312C21.9739 7.87909 21.8327 7.84573 21.6914 7.8125C21.5504 7.77925 21.4094 7.74585 21.2685 7.71188C21.1808 7.69073 21.0929 7.66998 21.005 7.64969C20.7016 7.57658 20.7016 7.57658 20.5625 7.4375C20.788 7.29706 21.0137 7.15694 21.2396 7.01712C21.3163 6.96956 21.393 6.92191 21.4697 6.87418C21.5801 6.80537 21.6908 6.73688 21.8015 6.66846C21.868 6.62722 21.9344 6.58598 22.0029 6.54349C22.1661 6.44976 22.3234 6.37674 22.5 6.3125C22.4794 6.27125 22.4588 6.23 22.4375 6.1875C22.4236 6.0658 22.413 5.94371 22.4041 5.82153C22.3986 5.74777 22.3932 5.67402 22.3876 5.59802C22.3821 5.52056 22.3767 5.44309 22.3711 5.36328C22.3654 5.28703 22.3597 5.21077 22.3539 5.1322C22.3281 4.7749 22.3045 4.42076 22.3125 4.0625Z" fill="#FFD92C"/>
<path id="Vector_12" d="M15.625 16.9375C17.0142 16.8837 18.1911 17.1677 19.25 18.125C19.2942 18.1641 19.3385 18.2033 19.384 18.2436C19.7199 18.5583 19.9549 18.9171 20.1875 19.3125C19.2992 20.2512 17.8247 20.789 16.553 20.8252C14.8917 20.8478 13.4025 20.4797 12.125 19.375C12.1663 19.2719 12.2075 19.1687 12.25 19.0625C12.2918 19.0859 12.3336 19.1094 12.3767 19.1335C13.8289 19.9074 15.4772 20.0205 17.0508 19.5547C17.5117 19.4108 17.9344 19.2044 18.3606 18.9795C18.5625 18.875 18.5625 18.875 18.75 18.8125C18.1709 17.95 17.1773 17.3048 16.1585 17.0865C15.9813 17.0531 15.8037 17.0246 15.625 17C15.625 16.9794 15.625 16.9587 15.625 16.9375Z" fill="#42A3F1"/>
<path id="Vector_13" d="M20.0625 9.9375C20.9882 10.3259 21.594 11.5649 21.9546 12.4421C22.5105 13.915 22.4816 15.6342 21.8633 17.082C21.5239 17.8269 21.0733 18.4771 20.5 19.0625C20.4559 19.1094 20.4119 19.1563 20.3665 19.2046C20.25 19.3125 20.25 19.3125 20.125 19.3125C20.0504 19.206 19.9809 19.0959 19.9141 18.9844C19.8009 18.796 19.7064 18.6424 19.5444 18.4932C19.4375 18.375 19.4375 18.375 19.4375 18.2515C19.5182 18.0881 19.6222 17.9816 19.75 17.8516C20.8905 16.615 21.3712 15.0064 21.3207 13.3472C21.2557 12.0859 20.7681 10.9743 20.0625 9.9375Z" fill="#3A484A"/>
<path id="Vector_14" d="M3.75005 22.5C3.86724 22.582 3.86724 22.582 3.93755 22.6875C3.93755 22.7494 3.93755 22.8113 3.93755 22.875C3.81516 22.9128 3.69276 22.9505 3.57036 22.9883C3.49664 23.0111 3.42292 23.0339 3.34697 23.0574C3.10568 23.1309 2.86342 23.2005 2.62041 23.2681C2.48753 23.3076 2.48753 23.3076 2.37505 23.4375C2.39641 23.9062 2.54074 24.3544 2.66411 24.8047C2.68681 24.8885 2.70947 24.9724 2.7321 25.0563C2.78945 25.2686 2.84715 25.4807 2.90496 25.6929C2.9892 26.0021 3.07276 26.3116 3.1563 26.6211C3.17387 26.686 3.19144 26.751 3.20954 26.8179C3.35366 27.3528 3.4916 27.8891 3.62895 28.4258C3.83376 29.2258 4.05028 30.0219 4.28768 30.8129C4.3516 31.0289 4.38875 31.2115 4.37505 31.4375C4.19927 31.4531 4.19927 31.4531 4.00005 31.4375C3.77985 31.2257 3.73021 30.9412 3.65576 30.6553C3.6413 30.6016 3.62684 30.5479 3.61193 30.4925C3.56409 30.3143 3.51706 30.1359 3.47002 29.9575C3.4365 29.832 3.40294 29.7066 3.36932 29.5811C3.28055 29.2493 3.19246 28.9172 3.1045 28.5852C3.01682 28.2546 2.92852 27.9242 2.84026 27.5938C2.73758 27.2092 2.63503 26.8246 2.53309 26.4399C2.3867 25.8875 2.23981 25.3352 2.08852 24.7841C2.05323 24.6548 2.01797 24.5255 1.98273 24.3962C1.95123 24.2814 1.91916 24.1667 1.88705 24.052C1.70209 23.3727 1.70209 23.3727 1.75005 23.0625C1.90902 22.8895 2.08897 22.8356 2.31206 22.7747C2.3716 22.7583 2.43114 22.742 2.49248 22.7252C2.55427 22.7089 2.61607 22.6926 2.67974 22.6758C2.74105 22.6587 2.80236 22.6417 2.86553 22.6241C3.44661 22.4677 3.44661 22.4677 3.75005 22.5Z" fill="#44A6F5"/>
<path id="Vector_15" d="M10.5001 24.875C10.6713 24.9116 10.8393 24.9567 11.0079 25.0039C11.1101 25.0317 11.2124 25.0595 11.3148 25.0872C11.3722 25.1028 11.4297 25.1184 11.4889 25.1344C11.7226 25.1969 11.9568 25.2572 12.1912 25.3171C12.2349 25.3283 12.2786 25.3395 12.3237 25.3511C12.5009 25.3964 12.6781 25.4418 12.8553 25.4869C12.9805 25.5188 13.1056 25.5509 13.2308 25.583C13.3402 25.611 13.3402 25.611 13.4519 25.6395C13.6251 25.6875 13.6251 25.6875 13.7501 25.75C14.3243 25.8002 14.8368 25.7997 15.3126 25.4375C15.4417 25.3093 15.5578 25.179 15.6702 25.0359C15.6966 25.0034 15.7229 24.971 15.7501 24.9375C15.7707 24.9375 15.7913 24.9375 15.8126 24.9375C15.8697 25.383 15.621 25.6915 15.3868 26.0469C15.0076 26.4369 14.5514 26.626 14.0088 26.6421C13.5685 26.6389 13.1733 26.5197 12.754 26.3945C12.6336 26.3599 12.5133 26.3253 12.3929 26.2908C12.2738 26.2567 12.1548 26.2224 12.0358 26.1881C11.7299 26.1017 11.4222 26.0243 11.1133 25.9492C10.0206 25.6791 10.0206 25.6791 9.76958 25.5156C9.68755 25.375 9.68755 25.375 9.69146 25.1484C9.81506 24.7035 10.1327 24.8108 10.5001 24.875Z" fill="#F9C6AA"/>
<path id="Vector_16" d="M16.0625 0.5625C16.25 0.625 16.25 0.625 16.3401 0.796494C16.3858 0.90871 16.3858 0.90871 16.4324 1.02319C16.4488 1.06304 16.4651 1.10288 16.482 1.14394C16.5165 1.22824 16.5507 1.31267 16.5846 1.39723C16.6365 1.52688 16.6894 1.6561 16.7426 1.78528C17 2.41679 17 2.41679 17 2.5625C18.1138 2.65531 18.1138 2.65531 19.25 2.75C19.1217 3.00651 19.037 3.08624 18.8164 3.25781C18.4008 3.58844 18.0008 3.93674 17.625 4.3125C17.6492 4.50437 17.6492 4.50437 17.7085 4.72607C17.7184 4.76692 17.7283 4.80777 17.7385 4.84986C17.7703 4.98081 17.803 5.1115 17.8359 5.24219C17.8682 5.37246 17.9003 5.50278 17.9321 5.63318C17.9611 5.75189 17.9907 5.87044 18.0204 5.98898C18.0625 6.1875 18.0625 6.1875 18.0625 6.4375C18.0175 6.41945 17.9724 6.40141 17.926 6.38281C17.8155 6.33866 17.7041 6.29664 17.5916 6.25781C17.3616 6.15545 17.1787 6.05955 17.0732 5.81995C16.9841 5.53261 16.9372 5.24067 16.8963 4.94318C16.8764 4.80144 16.8764 4.80144 16.8162 4.62646C16.7651 4.44739 16.7519 4.36486 16.8125 4.1875C17.0419 3.93508 17.2956 3.73154 17.5681 3.52768C17.7454 3.39377 17.9151 3.25148 18.0859 3.10938C18.1822 3.03114 18.2785 2.95297 18.375 2.875C18.2755 2.86226 18.176 2.84957 18.0765 2.83708C17.9879 2.82576 17.8994 2.81396 17.8109 2.80171C17.5633 2.76855 17.3212 2.7465 17.0713 2.74243C16.4839 2.72435 16.4839 2.72435 16.25 2.625C16.04 2.37596 15.9585 2.12376 15.875 1.8125C15.8505 1.75876 15.826 1.70502 15.8008 1.64966C15.7041 1.36479 15.8312 1.12209 15.9414 0.855469C15.9754 0.772687 15.9754 0.772687 16.01 0.688232C16.0273 0.646741 16.0447 0.605249 16.0625 0.5625Z" fill="#FFC803"/>
<path id="Vector_17" d="M29.875 14.4375C29.9852 14.4897 29.9852 14.4897 30.0977 14.543C30.1479 14.57 30.1982 14.5971 30.25 14.625C30.1515 14.822 29.9529 14.8604 29.7576 14.9399C29.7195 14.9558 29.6815 14.9716 29.6423 14.988C29.5 15.0471 29.3574 15.1055 29.2148 15.1641C28.8964 15.2955 28.578 15.427 28.25 15.5625C28.1881 16.2638 28.1263 16.965 28.0625 17.6875C27.875 17.6875 27.875 17.6875 27.7534 17.575C27.7085 17.5231 27.6635 17.4713 27.6172 17.418C27.5679 17.3614 27.5186 17.3049 27.4678 17.2466C27.266 17.0074 27.0675 16.7657 26.8716 16.5217C26.8315 16.4733 26.7913 16.4249 26.75 16.375C26.7224 16.3408 26.6947 16.3067 26.6663 16.2715C26.5676 16.1754 26.5676 16.1754 26.4314 16.1772C26.0326 16.2296 25.6473 16.3105 25.2578 16.4102C25.1435 16.4391 25.029 16.4679 24.9146 16.4963C24.8649 16.509 24.8152 16.5217 24.7639 16.5348C24.625 16.5625 24.625 16.5625 24.375 16.5625C24.4643 16.2378 24.5872 15.9405 24.8125 15.6875C24.9981 15.5877 25.1851 15.5456 25.3906 15.5039C25.4411 15.4918 25.4917 15.4797 25.5437 15.4672C25.6952 15.4321 25.8471 15.4033 26 15.375C26.0492 15.3633 26.0985 15.3516 26.1492 15.3395C26.4948 15.2721 26.4948 15.2721 26.6736 15.3788C26.7827 15.4805 26.8753 15.587 26.9688 15.7031C27.0003 15.7394 27.0318 15.7756 27.0642 15.813C27.1701 15.9361 27.2726 16.0615 27.375 16.1875C27.4247 16.2481 27.4744 16.3088 27.5256 16.3712C27.6631 16.539 27.8004 16.7069 27.9375 16.875C27.9425 16.8221 27.9476 16.7691 27.9527 16.7146C27.9717 16.5167 27.9911 16.319 28.0107 16.1212C28.0191 16.0359 28.0274 15.9505 28.0355 15.8652C28.0472 15.7419 28.0595 15.6188 28.0718 15.4956C28.079 15.4216 28.0862 15.3477 28.0936 15.2715C28.1715 14.7529 28.1715 14.7529 28.3528 14.6018C28.3931 14.5842 28.4334 14.5667 28.4749 14.5486C28.5195 14.529 28.5642 14.5095 28.6103 14.4894C28.6577 14.471 28.7051 14.4526 28.7539 14.4336C28.8262 14.4048 28.8262 14.4048 28.8999 14.3754C29.2784 14.2369 29.5235 14.2206 29.875 14.4375Z" fill="#FFC803"/>
<path id="Vector_18" d="M4.25 11.5625C4.42969 11.6427 4.54534 11.7202 4.6709 11.8713C4.70137 11.9076 4.73184 11.9438 4.76323 11.9812C4.79496 12.0196 4.82669 12.0581 4.85938 12.0977C4.89259 12.1367 4.92581 12.1757 4.96004 12.216C5.10818 12.3902 5.25211 12.5653 5.39038 12.7476C5.45044 12.8242 5.45044 12.8242 5.51172 12.9023C5.54483 12.9474 5.57794 12.9924 5.61206 13.0388C5.92228 13.2326 6.38631 13.0487 6.7229 12.9744C6.86873 12.9403 7.01448 12.9058 7.16016 12.8711C7.23512 12.8535 7.31009 12.8359 7.38733 12.8177C7.57079 12.7746 7.75418 12.7312 7.9375 12.6875C7.84651 13.0693 7.70922 13.3984 7.4375 13.6875C7.19782 13.7967 6.94326 13.822 6.68359 13.8481C6.43745 13.868 6.43745 13.868 6.20703 13.9409C5.87782 14.0349 5.87782 14.0349 5.6875 14C5.55591 13.8738 5.55591 13.8738 5.42578 13.6992C5.37776 13.6369 5.32975 13.5747 5.28027 13.5105C5.25518 13.4779 5.23008 13.4453 5.20422 13.4117C5.02477 13.187 4.82475 12.9801 4.62915 12.7695C4.5 12.625 4.5 12.625 4.375 12.4375C4.28366 12.6202 4.28298 12.8114 4.26538 13.0122C4.26131 13.0564 4.25723 13.1006 4.25304 13.1462C4.24007 13.2875 4.22745 13.4289 4.21484 13.5703C4.20612 13.6661 4.19737 13.7619 4.1886 13.8577C4.16714 14.0926 4.14599 14.3275 4.125 14.5625C3.95064 14.6528 3.77446 14.7388 3.59766 14.8242C3.54871 14.8496 3.49977 14.8751 3.44934 14.9012C3.16958 15.0336 2.99566 15.0886 2.69531 14.9902C2.60835 14.9542 2.52229 14.9159 2.4375 14.875C2.36402 14.8402 2.29055 14.8054 2.21484 14.7695C2.16457 14.7425 2.1143 14.7154 2.0625 14.6875C2.22637 14.4907 2.41496 14.4184 2.64893 14.322C2.68736 14.3059 2.72578 14.2899 2.76538 14.2733C2.88768 14.2221 3.01021 14.1715 3.13281 14.1211C3.29464 14.0544 3.45622 13.9872 3.61768 13.9197C3.68947 13.8901 3.76127 13.8605 3.83524 13.8301C4.0073 13.7671 4.0073 13.7671 4.0625 13.625C4.08097 13.4704 4.09644 13.3167 4.10962 13.1616C4.11369 13.116 4.11777 13.0704 4.12196 13.0234C4.13493 12.8776 4.14755 12.7318 4.16016 12.5859C4.16888 12.4871 4.17763 12.3883 4.1864 12.2896C4.20787 12.0472 4.22902 11.8049 4.25 11.5625Z" fill="#FFC803"/>
<path id="Vector_19" d="M26.125 4.6875C26.0341 5.02296 25.9289 5.34467 25.7895 5.66333C25.7639 5.72194 25.7383 5.78055 25.7119 5.84094C25.6585 5.96157 25.6043 6.08184 25.5493 6.20178C25.3976 6.52145 25.3976 6.52145 25.428 6.85669C25.4724 6.90398 25.5167 6.95127 25.5625 7C25.6235 7.07332 25.6845 7.14674 25.7453 7.22021C25.8157 7.30067 25.8862 7.3809 25.957 7.46094C26.0617 7.58027 26.1663 7.69963 26.2709 7.81903C26.3418 7.89977 26.4131 7.9802 26.4847 8.06036C26.519 8.09926 26.5533 8.13815 26.5886 8.17822C26.6352 8.23051 26.6352 8.23051 26.6826 8.28384C26.75 8.375 26.75 8.375 26.75 8.5C26.0075 8.45875 25.265 8.4175 24.5 8.375C24.2232 8.83114 24.2232 8.83114 23.9466 9.28738C23.84 9.46279 23.7327 9.63778 23.625 9.8125C23.5987 9.85542 23.5724 9.89834 23.5453 9.94257C23.492 10.0266 23.4342 10.1076 23.375 10.1875C23.3337 10.1875 23.2925 10.1875 23.25 10.1875C23.2164 10.0719 23.1841 9.95595 23.1523 9.83984C23.1342 9.77531 23.1161 9.71078 23.0974 9.64429C22.9925 9.02277 23.3313 8.4994 23.6792 8.00903C23.8539 7.80349 23.9685 7.71091 24.2388 7.68042C24.5099 7.68358 24.7715 7.72789 25.0365 7.78326C25.2588 7.8263 25.477 7.8362 25.7031 7.84766C25.8229 7.85663 25.9427 7.86568 26.0625 7.875C25.7514 7.48007 25.4324 7.09288 25.1051 6.71126C24.9772 6.56144 24.8594 6.41419 24.75 6.25C24.7644 6.11133 24.7644 6.11133 24.8125 5.9375C24.8329 5.86338 24.8533 5.78926 24.8743 5.71289C25.0805 5.07549 25.0805 5.07549 25.3725 4.86938C25.6277 4.7628 25.8474 4.6875 26.125 4.6875Z" fill="#FFC802"/>
<path id="Vector_20" d="M10 4.0625C9.98359 4.32268 9.96692 4.58284 9.95003 4.84299C9.94432 4.93136 9.93869 5.01974 9.93312 5.10812C9.92508 5.23567 9.91678 5.3632 9.90845 5.49072C9.90354 5.56731 9.89863 5.6439 9.89357 5.72281C9.87633 5.92218 9.84845 6.11574 9.8125 6.3125C9.85667 6.32878 9.90083 6.34506 9.94633 6.36183C10.2826 6.50426 10.585 6.71001 10.8945 6.90234C10.9647 6.94492 11.0348 6.9875 11.1071 7.03137C11.2065 7.09307 11.2065 7.09307 11.3079 7.15601C11.3687 7.1935 11.4296 7.231 11.4923 7.26964C11.5361 7.30441 11.5799 7.33918 11.625 7.375C11.625 7.43688 11.625 7.49875 11.625 7.5625C11.5067 7.59588 11.3882 7.62824 11.2695 7.66016C11.1706 7.68735 11.1706 7.68735 11.0696 7.71509C10.7355 7.77503 10.5263 7.68147 10.2449 7.50366C10.1867 7.46721 10.1285 7.43075 10.0685 7.39319C10.0085 7.35496 9.94852 7.31673 9.88672 7.27734C9.82553 7.23887 9.76434 7.2004 9.70129 7.16077C9.55059 7.06593 9.40018 6.97067 9.25 6.875C9.25451 6.79492 9.25902 6.71483 9.26367 6.63232C9.29782 6.00397 9.32188 5.37945 9.3125 4.75C9.25208 4.80285 9.19165 4.8557 9.12939 4.91016C8.96139 5.05692 8.79247 5.20254 8.62305 5.34766C8.47643 5.47345 8.33293 5.60082 8.19336 5.73438C7.83145 6.06422 7.83145 6.06422 7.61108 6.05957C7.46061 6.0118 7.32895 5.9449 7.1875 5.875C7.12909 5.86058 7.07068 5.84616 7.0105 5.8313C6.72243 5.75841 6.55155 5.70539 6.38696 5.44873C6.27783 5.19212 6.1875 4.96816 6.1875 4.6875C6.44211 4.72721 6.6492 4.81058 6.88208 4.91968C6.99374 4.96949 7.1054 5.0193 7.21709 5.06905C7.29374 5.10375 7.37004 5.13924 7.44597 5.17549C7.87649 5.40065 7.87649 5.40065 8.33659 5.38702C8.46937 5.28891 8.57565 5.18374 8.6875 5.0625C8.76317 4.99766 8.83958 4.93366 8.91675 4.87061C8.99021 4.80713 9.06354 4.74349 9.13672 4.67969C9.84796 4.0625 9.84796 4.0625 10 4.0625Z" fill="#FFC802"/>
<path id="Vector_21" d="M17.625 12.25C18.1359 12.6383 18.5059 13.1725 18.625 13.8125C18.6972 14.5632 18.5537 15.1886 18.1135 15.8042C17.7054 16.2835 17.1925 16.6296 16.5594 16.7022C15.8011 16.7619 15.1489 16.6719 14.5469 16.168C14.4902 16.1125 14.4334 16.0571 14.375 16C14.4369 15.9691 14.4369 15.9691 14.5 15.9375C14.6061 15.9815 14.7122 16.0259 14.8157 16.0757C15.3805 16.3043 15.9975 16.2091 16.5574 16.0205C16.854 15.8927 17.0797 15.7215 17.3125 15.5C17.3477 15.468 17.3829 15.436 17.4192 15.4031C17.8382 14.9756 18.0172 14.3882 18.0312 13.8008C18.0106 13.2697 17.8707 12.843 17.625 12.375C17.625 12.3337 17.625 12.2925 17.625 12.25Z" fill="#F6C4A9"/>
<path id="Vector_22" d="M19.3125 18.3125C19.564 18.4383 19.6507 18.5231 19.8203 18.7383C19.863 18.7915 19.9057 18.8448 19.9497 18.8997C20.0574 19.0552 20.1255 19.197 20.1875 19.375C20.0758 19.4587 19.9637 19.5419 19.8516 19.625C19.7892 19.6714 19.7268 19.7178 19.6626 19.7656C19.5 19.875 19.5 19.875 19.375 19.875C19.2926 19.7241 19.2107 19.5731 19.1289 19.4219C19.1056 19.3793 19.0823 19.3366 19.0582 19.2927C19.0359 19.2512 19.0135 19.2097 18.9905 19.167C18.9699 19.129 18.9492 19.0911 18.928 19.0519C18.875 18.9375 18.875 18.9375 18.8125 18.6875C18.9775 18.5637 19.1425 18.44 19.3125 18.3125Z" fill="#2E8FEE"/>
<path id="Vector_23" d="M9.125 8.0625C9.26937 8.0625 9.41375 8.0625 9.5625 8.0625C9.3975 8.74313 9.2325 9.42375 9.0625 10.125C9.00063 10.125 8.93875 10.125 8.875 10.125C8.76562 10 8.76562 10 8.6875 9.8125C8.71624 9.42657 8.8055 9.06417 8.90625 8.69141C8.92035 8.63755 8.93445 8.58369 8.94897 8.5282C9.05414 8.13336 9.05414 8.13336 9.125 8.0625Z" fill="#FFC904"/>
<path id="Vector_24" d="M24.375 12.6875C24.5813 12.6935 24.7504 12.7233 24.9375 12.8125C25.0582 12.9695 25.1358 13.1276 25.2192 13.3071C25.3448 13.5667 25.5106 13.7918 25.6797 14.0247C25.75 14.1875 25.75 14.1875 25.7109 14.3914C25.625 14.5625 25.625 14.5625 25.4375 14.625C25.2857 14.3795 25.1344 14.1337 24.9836 13.8876C24.9322 13.8039 24.8806 13.7203 24.8289 13.6368C24.7547 13.5168 24.681 13.3965 24.6074 13.2761C24.5726 13.2202 24.5726 13.2202 24.537 13.1631C24.4316 12.9896 24.375 12.8945 24.375 12.6875Z" fill="#FFC904"/>
<path id="Vector_25" d="M6.74996 14.6875C6.79121 14.6875 6.83246 14.6875 6.87496 14.6875C6.96261 14.812 7.04177 14.9354 7.11959 15.0659C7.14299 15.1045 7.1664 15.143 7.19052 15.1827C7.24001 15.2645 7.28928 15.3463 7.33834 15.4283C7.41363 15.554 7.48969 15.6793 7.56588 15.8044C7.61378 15.8838 7.66163 15.9631 7.70943 16.0425C7.73228 16.0801 7.75513 16.1177 7.77867 16.1565C7.93746 16.423 7.93746 16.423 7.93746 16.5625C7.73714 16.5695 7.62139 16.5696 7.43746 16.5C7.25464 16.3145 7.13149 16.0986 6.99996 15.875C6.95815 15.8099 6.91633 15.7448 6.87325 15.6777C6.55903 15.175 6.55903 15.175 6.57418 14.9543C6.62496 14.8125 6.62496 14.8125 6.74996 14.6875Z" fill="#FFC904"/>
<path id="Vector_26" d="M22.125 7.41015C22.1794 7.42478 22.2338 7.4394 22.2898 7.45446C22.4224 7.49018 22.555 7.52619 22.6875 7.5625C22.7184 7.77906 22.7184 7.77906 22.75 8C22.2901 7.96091 21.8571 7.8672 21.4102 7.7539C21.3422 7.73735 21.2742 7.72079 21.2042 7.70373C21.1395 7.6875 21.0748 7.67126 21.0081 7.65454C20.9494 7.63988 20.8908 7.62522 20.8305 7.61012C20.6875 7.5625 20.6875 7.5625 20.5625 7.4375C20.6244 7.39496 20.6863 7.35242 20.75 7.30859C20.7848 7.28466 20.8196 7.26073 20.8555 7.23608C21.2471 7.10442 21.7405 7.30473 22.125 7.41015Z" fill="#FFC804"/>
<path id="Vector_27" d="M15.9375 5.12501C15.9994 5.16626 16.0612 5.20751 16.125 5.25001C16.125 5.29126 16.125 5.33251 16.125 5.37501C16.0047 5.45982 16.0047 5.45982 15.8374 5.55616C15.7771 5.59129 15.7167 5.62642 15.6545 5.66261C15.5907 5.69918 15.5268 5.73576 15.4609 5.77345C15.3364 5.84545 15.2119 5.91756 15.0874 5.98976C14.9992 6.0406 14.9992 6.0406 14.9091 6.09248C14.7777 6.17095 14.6539 6.25305 14.5298 6.34229C14.4532 6.38943 14.4532 6.38943 14.375 6.43751C14.3131 6.41688 14.2512 6.39626 14.1875 6.37501C14.2001 6.28361 14.2148 6.1925 14.2305 6.10157C14.2384 6.05082 14.2464 6.00006 14.2546 5.94776C14.3125 5.81251 14.3125 5.81251 14.4404 5.75221C14.5013 5.73086 14.5622 5.70951 14.625 5.68751C14.7107 5.63881 14.7953 5.58824 14.8792 5.53639C14.925 5.50831 14.9708 5.48023 15.0179 5.4513C15.1133 5.39232 15.2083 5.3329 15.3031 5.27308C15.3488 5.24525 15.3945 5.21741 15.4417 5.18873C15.4829 5.16301 15.5241 5.1373 15.5665 5.1108C15.7195 5.04974 15.7856 5.06622 15.9375 5.12501Z" fill="#FFC903"/>
<path id="Vector_28" d="M9.5625 4.3125C9.60375 4.33313 9.645 4.35375 9.6875 4.375C9.65785 4.39691 9.6282 4.41883 9.59766 4.44141C9.45758 4.6151 9.45805 4.78215 9.4375 5C9.39625 4.9175 9.355 4.835 9.3125 4.75C9.00313 5.01812 8.69375 5.28625 8.375 5.5625C8.33375 5.52125 8.2925 5.48 8.25 5.4375C8.6875 5.0625 9.125 4.6875 9.5625 4.3125Z" fill="#FFCE0D"/>
<path id="Vector_29" d="M25.25 6.6875C25.4778 6.91033 25.692 7.14009 25.8984 7.38281C25.9274 7.4156 25.9563 7.44839 25.9861 7.48218C26.0679 7.57861 26.0679 7.57861 26.1875 7.75C26.1669 7.81187 26.1463 7.87375 26.125 7.9375C26.0219 7.9375 25.9187 7.9375 25.8125 7.9375C25.895 7.91688 25.9775 7.89625 26.0625 7.875C26.0308 7.83568 25.999 7.79637 25.9663 7.75586C25.7003 7.4251 25.4394 7.09162 25.1875 6.75C25.2081 6.72937 25.2287 6.70875 25.25 6.6875Z" fill="#FFCE0F"/>
<path id="Vector_30" d="M11.375 18.5625C11.5748 18.6586 11.7635 18.768 11.9531 18.8828C12.0089 18.9165 12.0646 18.9502 12.1221 18.9849C12.1854 19.0233 12.1854 19.0233 12.25 19.0625C12.2088 19.145 12.1675 19.2275 12.125 19.3125C11.8421 19.0826 11.6004 18.8493 11.375 18.5625Z" fill="#3C4B4D"/>
</g>
</svg>
