<svg width="45" height="45" viewBox="0 0 45 45" fill="none" xmlns="http://www.w3.org/2000/svg">
<g id="Logomark">
<circle id="Shape" cx="22.6001" cy="22.2499" r="20.5" stroke="#6927DA" stroke-width="3"/>
<path id="Shape_2" d="M30.7316 30.3817C26.5922 34.5211 21.9027 37.2233 17.7263 38.2972C13.5123 39.3809 10.1156 38.7571 8.10422 36.7457C6.09281 34.7343 5.46902 31.3376 6.55265 27.1235C7.62657 22.9472 10.3288 18.2577 14.4682 14.1183C18.6076 9.97886 23.2971 7.27665 27.4735 6.20273C31.6876 5.1191 35.0842 5.74289 37.0956 7.7543C39.107 9.76571 39.7308 13.1623 38.6472 17.3764C37.5732 21.5528 34.871 26.2423 30.7316 30.3817Z" stroke="#6927DA" stroke-width="3"/>
<path id="Shape_3" d="M30.7315 14.1182C34.8709 18.2576 37.5731 22.9471 38.6471 27.1235C39.7307 31.3376 39.1069 34.7342 37.0955 36.7456C35.0841 38.757 31.6875 39.3808 27.4734 38.2972C23.297 37.2233 18.6075 34.5211 14.4681 30.3817C10.3287 26.2423 7.62647 21.5528 6.55255 17.3764C5.46893 13.1623 6.09271 9.76567 8.10412 7.75426C10.1155 5.74285 13.5122 5.11906 17.7262 6.20269C21.9026 7.27661 26.5921 9.97882 30.7315 14.1182Z" stroke="#6927DA" stroke-width="3"/>
</g>
</svg>
