<svg width="123" height="31" viewBox="0 0 123 31" fill="none" xmlns="http://www.w3.org/2000/svg">
<path id="Vector" d="M103.104 15.5C103.104 18.7923 104.041 21.4615 105.199 21.4615C106.356 21.4615 107.293 18.7923 107.293 15.5C107.293 12.2077 106.356 9.53846 105.199 9.53846C104.041 9.53846 103.104 12.2077 103.104 15.5ZM-7.62939e-06 29.4915C-7.62939e-06 29.8077 0.110313 30.111 0.306694 30.3346C0.503067 30.5582 0.769417 30.6838 1.04713 30.6838L115.146 31C119.55 31 123 24.1919 123 15.5C123 6.80809 119.55 0 115.146 0H105.722C101.319 0 97.8685 6.80809 97.8685 15.5C97.8685 21.0845 99.2926 25.8925 101.48 28.6154L1.04713 28.2992C0.769417 28.2992 0.503067 28.4248 0.306694 28.6484C0.110313 28.872 -7.62939e-06 29.1753 -7.62939e-06 29.4915ZM119.614 13.0871C119.396 13.0875 119.183 13.0098 119.006 12.865L116.717 11.0035L114.979 12.4179C114.753 12.5852 114.479 12.6467 114.214 12.5897C113.949 12.5327 113.713 12.3616 113.557 12.1119C113.4 11.8622 113.333 11.5532 113.372 11.2493C113.41 10.9454 113.549 10.67 113.762 10.4804L116.108 8.56822C116.286 8.42377 116.499 8.34612 116.717 8.34612C116.935 8.34612 117.148 8.42377 117.326 8.56822L120.224 10.9245C120.404 11.0714 120.539 11.2799 120.609 11.5198C120.679 11.7597 120.68 12.0187 120.612 12.2593C120.544 12.5 120.411 12.7098 120.232 12.8586C120.052 13.0074 119.836 13.0874 119.614 13.0871ZM113.505 20.2245L116.108 18.1067C116.286 17.9622 116.499 17.8846 116.717 17.8846C116.935 17.8846 117.148 17.9622 117.326 18.1067L119.859 20.1634C119.977 20.2512 120.079 20.3654 120.158 20.4992C120.236 20.6329 120.291 20.7835 120.317 20.9418C120.343 21.1 120.341 21.2627 120.31 21.42C120.28 21.5772 120.222 21.7259 120.14 21.8568C120.057 21.9878 119.953 22.0985 119.832 22.1821C119.711 22.2657 119.576 22.3206 119.436 22.3434C119.296 22.3662 119.154 22.3565 119.017 22.3148C118.88 22.2731 118.753 22.2004 118.641 22.1009L116.717 20.542L114.722 22.1635C114.611 22.263 114.483 22.3357 114.347 22.3774C114.21 22.4191 114.067 22.4288 113.927 22.406C113.787 22.3832 113.653 22.3283 113.532 22.2447C113.411 22.1611 113.306 22.0504 113.224 21.9194C113.142 21.7885 113.084 21.6398 113.053 21.4826C113.023 21.3253 113.02 21.1626 113.047 21.0044C113.073 20.8461 113.127 20.6955 113.206 20.5618C113.285 20.428 113.386 20.3123 113.505 20.2245ZM101.829 25.0489C100.626 22.5152 99.9628 19.1261 99.9628 15.5C99.9628 11.8739 100.626 8.48177 101.829 5.95111C102.924 3.65145 104.306 2.38462 105.722 2.38462C107.138 2.38462 108.521 3.65145 109.615 5.95111C110.818 8.48177 111.481 11.8739 111.481 15.5C111.481 19.1261 110.818 22.5182 109.615 25.0489C108.521 27.3486 107.138 28.6154 105.722 28.6154C104.306 28.6154 102.924 27.3486 101.829 25.0489Z" fill="#BB242C"/>
</svg>
