<svg width="47" height="48" viewBox="0 0 47 48" fill="none" xmlns="http://www.w3.org/2000/svg">
<g id="Frame 1618873198">
<path id="Vector" d="M32.9916 14.9748H7.90588L12.4695 0.0287476H27.224C33.5952 0.0287476 32.9916 5.1928 32.9916 11.564V14.9748Z" fill="#B20023"/>
<path id="Vector_2" d="M40.0814 19.0914H6.65079L0.238037 40.0989H13.4021C13.4308 39.5081 13.5138 38.9141 13.6544 38.3201C14.9063 33.0474 20.1949 29.7899 25.4675 31.0418C29.814 32.0734 32.7872 35.8514 32.998 40.0957H43.4443L46.2929 27.382C47.5065 23.2399 44.3992 19.0914 40.0814 19.0914Z" fill="#B20023"/>
<path id="Vector_3" d="M23.1968 47.9711C27.2747 47.9711 30.5804 44.6654 30.5804 40.5875C30.5804 36.5097 27.2747 33.2039 23.1968 33.2039C19.119 33.2039 15.8132 36.5097 15.8132 40.5875C15.8132 44.6654 19.119 47.9711 23.1968 47.9711Z" fill="#B20023"/>
</g>
</svg>
