<svg width="91" height="26" viewBox="0 0 91 26" fill="none" xmlns="http://www.w3.org/2000/svg">
<g id="Group">
<g id="Group_2">
<path id="Vector" d="M0.229492 15.0632V0.229858H4.71123V15.0632H0.229492ZM2.59464 15.0632V11.6841H7.24726C7.58514 11.6841 7.85312 11.6009 8.05118 11.4381C8.24925 11.2716 8.34635 11.0257 8.34635 10.6965C8.34635 10.4089 8.24925 10.1856 8.05118 10.0267C7.85312 9.86777 7.58514 9.7883 7.24726 9.7883H2.59464V6.73838H6.31519C6.71132 6.73838 7.03755 6.66269 7.29775 6.51133C7.55796 6.35997 7.75603 6.15942 7.88808 5.91346C8.02012 5.6675 8.09002 5.39127 8.09002 5.08855C8.09002 4.55122 7.92691 4.19929 7.60456 4.02901C7.28222 3.85873 6.9055 3.7717 6.48607 3.7717H2.59464V0.229858H6.86667C8.79685 0.229858 10.2299 0.589335 11.1698 1.31208C12.1057 2.03483 12.5756 3.07166 12.5756 4.43391C12.5756 5.00908 12.4475 5.57289 12.1951 6.12158C11.9426 6.67026 11.5659 7.16219 11.0727 7.59357C10.5794 8.02495 9.96583 8.35037 9.23182 8.57363L9.04152 7.72979C10.2688 7.78655 11.2047 8.1309 11.8533 8.7704C12.5019 9.4099 12.8242 10.1894 12.8242 11.1089C12.8242 11.9868 12.6106 12.7209 12.1795 13.3037C11.7484 13.8864 11.1309 14.3254 10.3192 14.6205C9.50756 14.9157 8.54053 15.0632 7.41038 15.0632H2.59464Z" fill="black"/>
<path id="Vector_2" d="M14.2883 15.0631L15.9777 5.42141C16.1874 4.2408 16.5253 3.29478 16.9836 2.58717C17.4419 1.87956 18.0128 1.34601 18.6963 0.97896C19.3798 0.615694 20.1565 0.369735 21.0226 0.248646C21.8886 0.123773 22.8324 0.0632324 23.846 0.0632324C24.4791 0.0632324 25.182 0.101068 25.951 0.176749C26.7199 0.252429 27.384 0.350817 27.9472 0.47569L27.9899 0.721649C27.9316 0.967611 27.8928 1.29682 27.8734 1.70927C27.854 2.12173 27.8384 2.54176 27.8307 2.96557C27.8229 3.38938 27.819 3.7413 27.819 4.01753V15.0593H23.3373V5.00517C23.3373 4.55109 23.3567 4.13862 23.3994 3.76022C23.4421 3.38182 23.4965 3.04126 23.5703 2.74232L24.1217 3.77157C23.9819 3.74509 23.78 3.72238 23.5198 3.71103C23.2596 3.69589 23.0305 3.69211 22.8324 3.69211C22.2964 3.69211 21.8615 3.76022 21.5313 3.89644C21.2012 4.03267 20.941 4.24079 20.7585 4.51324C20.576 4.78947 20.4478 5.14518 20.3779 5.58413L18.7701 15.0593H14.2883V15.0631ZM17.2477 11.6045V8.14212H25.45V11.6045H17.2477Z" fill="black"/>
<path id="Vector_3" d="M30.7163 15.0631V0.229675H35.198V15.0631H30.7163ZM33.0814 11.9337V8.47128H36.635C37.3108 8.47128 37.8545 8.34263 38.2623 8.08153C38.67 7.82043 38.9652 7.48365 39.1516 7.07119C39.3341 6.65873 39.4274 6.21978 39.4274 5.75434C39.4274 5.09592 39.2254 4.61535 38.8254 4.31263C38.4215 4.00991 37.8894 3.85856 37.2292 3.85856H33.0853V0.233451H37.2292C38.7671 0.233451 40.0216 0.456716 41.0041 0.903232C41.9828 1.34975 42.7129 1.9741 43.1906 2.77632C43.6683 3.57853 43.9091 4.51697 43.9091 5.58785C43.9091 6.56413 43.7149 7.44202 43.3266 8.22531C42.9382 9.00861 42.4139 9.67459 41.7498 10.2233C41.0857 10.772 40.3284 11.1958 39.4779 11.4909C38.6234 11.7861 37.7341 11.9337 36.802 11.9337H33.0814ZM39.2565 15.0631L36.635 11.1088L40.7167 10.3671L44.1615 14.8171V15.0631H39.2565Z" fill="black"/>
<path id="Vector_4" d="M45.6178 15.0631L47.3072 5.42141C47.5169 4.2408 47.8548 3.29478 48.3131 2.58717C48.7713 1.87956 49.3422 1.34601 50.0257 0.97896C50.7093 0.615694 51.486 0.369735 52.3521 0.248646C53.2181 0.123773 54.1618 0.0632324 55.1755 0.0632324C55.8085 0.0632324 56.5115 0.101068 57.2804 0.176749C58.0494 0.252429 58.7135 0.350817 59.2766 0.47569L59.3193 0.721649C59.2611 0.967611 59.2223 1.29682 59.2028 1.70927C59.1834 2.12173 59.1679 2.54176 59.1601 2.96557C59.1524 3.38938 59.1485 3.7413 59.1485 4.01753V15.0593H54.6667V5.00517C54.6667 4.55109 54.6862 4.13862 54.7289 3.76022C54.7716 3.38182 54.8259 3.04126 54.8997 2.74232L55.4512 3.77157C55.3114 3.74509 55.1095 3.72238 54.8493 3.71103C54.5891 3.69589 54.3599 3.69211 54.1619 3.69211C53.6259 3.69211 53.1909 3.76022 52.8608 3.89644C52.5307 4.03267 52.2705 4.24079 52.088 4.51324C51.9054 4.78947 51.7773 5.14518 51.7074 5.58413L50.0995 15.0593H45.6178V15.0631ZM48.5771 11.6045V8.14212H56.7794V11.6045H48.5771Z" fill="black"/>
<path id="Vector_5" d="M62.0652 15.0631V0.229675H66.5469V15.0631H62.0652ZM67.2266 10.2838H64.4342V6.57548H66.9703C67.646 6.57548 68.1703 6.45061 68.547 6.19329C68.9199 5.93976 69.184 5.54622 69.3393 5.00889L70.7762 0.229675H75.1725V0.475635L73.3123 6.07978C73.0443 6.87821 72.621 7.59339 72.0423 8.23289C71.4637 8.87239 70.7646 9.37188 69.949 9.73515C69.1334 10.1022 68.2247 10.2838 67.2266 10.2838ZM71.1141 8.14206L75.5104 14.8171V15.0631H70.7762L67.479 9.62541L71.1141 8.14206Z" fill="black"/>
<path id="Vector_6" d="M76.5278 15.0631L78.2172 5.42141C78.427 4.2408 78.7648 3.29478 79.2231 2.58717C79.6814 1.87956 80.2523 1.34601 80.9358 0.97896C81.6193 0.615694 82.3961 0.369735 83.2621 0.248646C84.1282 0.123773 85.0719 0.0632324 86.0855 0.0632324C86.7186 0.0632324 87.4215 0.101068 88.1905 0.176749C88.9594 0.252429 89.6236 0.350817 90.1867 0.47569L90.2294 0.721649C90.1712 0.967611 90.1323 1.29682 90.1129 1.70927C90.0935 2.12173 90.078 2.54176 90.0702 2.96557C90.0624 3.38938 90.0585 3.7413 90.0585 4.01753V15.0593H85.5768V5.00517C85.5768 4.55109 85.5962 4.13862 85.6389 3.76022C85.6816 3.38182 85.736 3.04126 85.8098 2.74232L86.3613 3.77157C86.2215 3.74509 86.0195 3.72238 85.7593 3.71103C85.4991 3.69589 85.27 3.69211 85.0719 3.69211C84.5359 3.69211 84.101 3.76022 83.7709 3.89644C83.4408 4.03267 83.1806 4.24079 82.998 4.51324C82.8155 4.78947 82.6873 5.14518 82.6174 5.58413L81.0096 15.0593H76.5278V15.0631ZM79.4872 11.6045V8.14212H87.6895V11.6045H79.4872Z" fill="black"/>
</g>
<g id="Group_3">
<path id="Vector_7" d="M15.9147 17.7236L18.9989 25.3374H17.8566L17.1313 23.4551H13.6986L12.9847 25.3374H11.8424L15.018 17.7236H15.9147ZM14.0528 22.5562H16.7829L15.4406 19.063H15.4178L14.0528 22.5562Z" fill="#B20023"/>
<path id="Vector_8" d="M22.3059 17.7234V22.4232C22.3059 23.2739 22.7228 24.565 24.1164 24.565C25.4586 24.565 25.9269 23.3523 25.9269 22.4232V17.7234H26.9036V22.5922C26.9036 23.3765 26.6466 24.0522 26.1383 24.6434C25.6299 25.2347 24.956 25.5243 24.1107 25.5243C23.2882 25.5243 22.6143 25.2347 22.0946 24.6615C21.5748 24.0884 21.3235 23.3946 21.3235 22.5861V17.7174H22.3059V17.7234Z" fill="#B20023"/>
<path id="Vector_9" d="M34.9569 17.7235V18.6888H32.638V25.3313H31.6614V18.6888H29.3425V17.7235H34.9569Z" fill="#B20023"/>
<path id="Vector_10" d="M43.5069 18.6527C44.2266 19.4069 44.5864 20.3601 44.5864 21.5366C44.5864 22.6648 44.2323 23.624 43.5298 24.3842C42.8273 25.1444 41.9192 25.5366 40.834 25.5366C39.7659 25.5366 38.8806 25.1625 38.1553 24.3963C37.4356 23.6422 37.0758 22.6889 37.0758 21.5366C37.0758 20.3843 37.4299 19.4431 38.1439 18.6769C38.8578 17.9107 39.7545 17.5366 40.834 17.5366C41.8906 17.5306 42.7873 17.9107 43.5069 18.6527ZM38.8692 23.6844C39.3661 24.2756 40.0287 24.5652 40.834 24.5652C41.6164 24.5652 42.2675 24.2756 42.7873 23.6965C43.2956 23.1294 43.5526 22.4054 43.5526 21.5366C43.5526 20.6739 43.2956 19.9559 42.7987 19.3767C42.3018 18.7975 41.6393 18.508 40.8225 18.508C40.0401 18.508 39.3947 18.7975 38.8863 19.3707C38.3666 19.9499 38.1153 20.6739 38.1153 21.5426C38.1153 22.3812 38.3666 23.1052 38.8692 23.6844Z" fill="#B20023"/>
<path id="Vector_11" d="M57.7114 18.7131L56.8947 19.3707C56.4549 18.7915 55.8781 18.5019 55.1527 18.5019C54.3588 18.5019 53.7191 18.7915 53.2165 19.3828C52.7196 19.974 52.4626 20.7161 52.4626 21.5969C52.4626 22.4355 52.7082 23.1353 53.2051 23.7025C53.702 24.2696 54.3474 24.5652 55.147 24.5652C55.9409 24.5652 56.5748 24.2213 57.0318 23.5456L57.8542 24.2032C57.2831 25.0237 56.2664 25.5366 55.1241 25.5366C54.0161 25.5366 53.0052 25.0297 52.394 24.2696C51.7829 23.5094 51.4174 22.5381 51.4174 21.5909C51.4174 20.4204 51.7658 19.4491 52.4569 18.6889C53.1479 17.9288 54.0561 17.5366 55.1755 17.5366C56.215 17.5306 57.146 17.9529 57.7114 18.7131Z" fill="#B20023"/>
<path id="Vector_12" d="M63.714 17.7235L66.7982 25.3373H65.6559L64.9306 23.455H61.498L60.784 25.3373H59.6417L62.8173 17.7235H63.714ZM61.8521 22.556H64.5821L63.24 19.0628H63.2171L61.8521 22.556Z" fill="#B20023"/>
<path id="Vector_13" d="M71.8473 17.7235C73.1781 17.7235 74.1091 18.4354 74.1091 19.8532C74.1091 20.3177 73.9549 20.7582 73.6521 21.1564C73.3437 21.5545 72.9097 21.7898 72.3499 21.8683H72.3385L74.3832 25.3434H73.161L71.3276 21.9889H70.2367V25.3434H69.26V17.7295H71.8473V17.7235ZM71.5618 21.0779C72.567 21.0779 73.0696 20.6677 73.0696 19.8532C73.0696 19.0327 72.5727 18.6285 71.5618 18.6285H70.2367V21.0779H71.5618Z" fill="#B20023"/>
<path id="Vector_14" d="M81.6597 17.7234V18.6887H77.9872V20.9572H81.4083V21.9225H77.9872V24.3599H81.8424V25.3252H77.0105V17.7114H81.6597V17.7234Z" fill="#B20023"/>
</g>
</g>
</svg>
