<svg width="45" height="44" viewBox="0 0 45 44" fill="none" xmlns="http://www.w3.org/2000/svg">
<g id="Logomark">
<path id="Shape" d="M36.7067 9.16314C36.2744 8.73092 35.8422 8.2987 35.41 7.86648C34.1133 6.48337 32.7302 5.10027 31.0014 4.23583C29.0131 3.1985 26.8521 3.45783 24.691 3.45783C21.4061 3.45783 13.1939 3.45783 8.35303 3.45783L11.6379 7.86648C17.6025 7.86648 26.9385 7.86648 31.2607 7.86648C33.076 7.86648 34.632 8.21226 36.1016 9.16314C36.3609 9.24958 36.6202 9.24958 36.7067 9.16314Z" fill="#66C61C"/>
<path id="Shape_2" d="M40.3371 16.2516C39.9049 15.8194 39.4727 15.3872 39.0405 14.955C37.7438 13.5719 36.3607 12.1888 34.6318 11.3243C32.6436 10.287 30.4825 10.5463 28.3214 10.5463C25.4688 10.5463 18.6397 10.5463 13.7988 10.5463L17.0837 14.955C22.9619 14.955 31.0012 14.955 34.9776 14.955C36.7929 14.955 38.3489 15.3007 39.8185 16.2516C39.9914 16.3381 40.1643 16.3381 40.3371 16.2516Z" fill="#4CA30D"/>
<path id="Shape_3" d="M44.3999 23.1669C43.9676 22.7347 43.5354 22.3025 43.1032 21.8703C41.8065 20.4872 40.4234 19.104 38.6946 18.2396C36.7064 17.2023 34.5453 17.4616 32.3842 17.4616C29.7044 17.4616 23.8262 17.4616 19.0718 17.4616L22.3566 21.8703C28.0619 21.8703 35.3233 21.8703 38.9539 21.8703C40.7692 21.8703 42.3252 22.216 43.7948 23.1669C44.0541 23.2534 44.227 23.3398 44.3999 23.1669Z" fill="#3B7C0F"/>
<path id="Shape_4" d="M8.00684 34.8369C8.43906 35.2691 8.87128 35.7013 9.3035 36.1335C10.6002 37.5166 11.9833 38.8997 13.7121 39.7642C15.7003 40.8015 17.8614 40.5422 20.0225 40.5422H36.3605L33.0756 36.1335C27.111 36.1335 17.775 36.1335 13.4528 36.1335C11.6375 36.1335 10.0815 35.7878 8.61194 34.8369C8.35261 34.7504 8.17972 34.7504 8.00684 34.8369Z" fill="#66C61C"/>
<path id="Shape_5" d="M4.37646 27.7487C4.80868 28.1809 5.24091 28.6131 5.67313 29.0454C6.96979 30.4285 8.35288 31.8116 10.0818 32.676C12.07 33.7133 14.2311 33.454 16.3922 33.454H30.9148L27.6299 29.0454C21.7517 29.0454 13.7124 29.0454 9.73599 29.0454C7.92067 29.0454 6.36467 28.6996 4.89512 27.7487C4.72223 27.6623 4.54935 27.6623 4.37646 27.7487Z" fill="#4CA30D"/>
<path id="Shape_6" d="M0.399902 20.7465C0.832122 21.1787 1.26434 21.6109 1.69656 22.0431C2.99322 23.4262 4.37633 24.8094 6.10521 25.6738C8.09343 26.7111 10.2545 26.4518 12.4156 26.4518H25.728L22.4431 22.0431C16.7378 22.0431 9.47653 22.0431 5.84588 22.0431C4.03055 22.0431 2.47456 21.6974 1.00501 20.7465C0.745676 20.66 0.57279 20.66 0.399902 20.7465Z" fill="#3B7C0F"/>
</g>
</svg>
